<svg width="170" height="58" viewBox="0 0 170 58" fill="none" xmlns="http://www.w3.org/2000/svg">
<rect x="1.36768" y="1.48261" width="167.927" height="55.0348" rx="9.17247" fill="black"/>
<path d="M115.707 27.8723V31.1053H113.681V33.2255H115.707V40.4294C115.707 42.8892 116.82 43.8732 119.619 43.8732C120.111 43.8732 120.58 43.8146 120.99 43.7443V41.6476C120.639 41.6827 120.416 41.7061 120.029 41.7061C118.776 41.7061 118.226 41.1205 118.226 39.7851V33.2255H120.99V31.1053H118.226V27.8723H115.707Z" fill="white"/>
<path d="M128.122 44.0489C131.847 44.0489 134.131 41.5539 134.131 37.4189C134.131 33.3075 131.835 30.8007 128.122 30.8007C124.397 30.8007 122.101 33.3075 122.101 37.4189C122.101 41.5539 124.385 44.0489 128.122 44.0489ZM128.122 41.8116C125.931 41.8116 124.701 40.2068 124.701 37.4189C124.701 34.6545 125.931 33.038 128.122 33.038C130.3 33.038 131.542 34.6545 131.542 37.4189C131.542 40.1951 130.3 41.8116 128.122 41.8116Z" fill="white"/>
<path d="M136.085 43.8029H138.604V36.271C138.604 34.4788 139.951 33.2723 141.86 33.2723C142.305 33.2723 143.055 33.3543 143.266 33.4246V30.9413C142.996 30.871 142.516 30.8359 142.141 30.8359C140.478 30.8359 139.06 31.7495 138.697 33.0029H138.51V31.0467H136.085V43.8029Z" fill="white"/>
<path d="M149.519 32.9443C151.381 32.9443 152.599 34.2445 152.658 36.2476H146.216C146.356 34.2563 147.656 32.9443 149.519 32.9443ZM152.646 40.3591C152.178 41.3547 151.135 41.9053 149.612 41.9053C147.598 41.9053 146.298 40.4879 146.216 38.2506V38.11H155.223V37.2315C155.223 33.2255 153.08 30.8007 149.53 30.8007C145.934 30.8007 143.65 33.3894 143.65 37.4658C143.65 41.5421 145.888 44.0489 149.542 44.0489C152.459 44.0489 154.497 42.6432 155.071 40.3591H152.646Z" fill="white"/>
<path d="M99.1916 39.0922C99.3858 42.2246 101.996 44.2278 105.881 44.2278C110.033 44.2278 112.632 42.1274 112.632 38.7766C112.632 36.142 111.15 34.6851 107.557 33.8474L105.626 33.3739C103.344 32.8397 102.421 32.1234 102.421 30.8729C102.421 29.2946 103.854 28.2626 106.003 28.2626C108.042 28.2626 109.451 29.2703 109.706 30.885H112.352C112.194 27.9348 109.596 25.8587 106.039 25.8587C102.215 25.8587 99.6651 27.9348 99.6651 31.055C99.6651 33.6288 101.11 35.1586 104.279 35.8992L106.537 36.4455C108.856 36.9919 109.876 37.7932 109.876 39.1287C109.876 40.6827 108.273 41.8118 106.088 41.8118C103.744 41.8118 102.118 40.7555 101.887 39.0922H99.1916Z" fill="white"/>
<path d="M73.1032 30.8359C71.3696 30.8359 69.8702 31.7027 69.0971 33.1552H68.9097V31.0467H66.485V48.0432H69.0034V41.8701H69.2026C69.8702 43.2172 71.311 44.0137 73.1266 44.0137C76.3479 44.0137 78.3978 41.4719 78.3978 37.4189C78.3978 33.366 76.3479 30.8359 73.1032 30.8359ZM72.3887 41.753C70.2802 41.753 68.9566 40.0897 68.9566 37.4307C68.9566 34.7599 70.2802 33.0966 72.4004 33.0966C74.5323 33.0966 75.8091 34.7248 75.8091 37.4189C75.8091 40.1248 74.5323 41.753 72.3887 41.753Z" fill="white"/>
<path d="M87.2102 30.8359C85.4766 30.8359 83.9772 31.7027 83.2041 33.1552H83.0167V31.0467H80.592V48.0432H83.1104V41.8701H83.3095C83.9772 43.2172 85.418 44.0137 87.2336 44.0137C90.4549 44.0137 92.5047 41.4719 92.5047 37.4189C92.5047 33.366 90.4549 30.8359 87.2102 30.8359ZM86.4956 41.753C84.3872 41.753 83.0635 40.0897 83.0635 37.4307C83.0635 34.7599 84.3872 33.0966 86.5074 33.0966C88.6392 33.0966 89.916 34.7248 89.916 37.4189C89.916 40.1248 88.6392 41.753 86.4956 41.753Z" fill="white"/>
<path d="M61.9665 43.8029H64.856L58.5306 26.2836H55.6047L49.2793 43.8029H52.0717L53.6864 39.1529H60.3639L61.9665 43.8029ZM56.928 29.4645H57.1344L59.6719 36.8705H54.3785L56.928 29.4645Z" fill="white"/>
<path d="M50.9714 13.0695V21.5209H54.0228C56.5413 21.5209 57.9996 19.9688 57.9996 17.2688C57.9996 14.6098 56.5296 13.0695 54.0228 13.0695H50.9714ZM52.2834 14.2643H53.8764C55.6276 14.2643 56.6643 15.3771 56.6643 17.2864C56.6643 19.225 55.6452 20.3261 53.8764 20.3261H52.2834V14.2643Z" fill="white"/>
<path d="M62.466 21.6439C64.3285 21.6439 65.4706 20.3964 65.4706 18.3289C65.4706 16.2732 64.3226 15.0198 62.466 15.0198C60.6036 15.0198 59.4556 16.2732 59.4556 18.3289C59.4556 20.3964 60.5977 21.6439 62.466 21.6439ZM62.466 20.5252C61.3708 20.5252 60.7558 19.7228 60.7558 18.3289C60.7558 16.9467 61.3708 16.1385 62.466 16.1385C63.5554 16.1385 64.1762 16.9467 64.1762 18.3289C64.1762 19.717 63.5554 20.5252 62.466 20.5252Z" fill="white"/>
<path d="M75.1964 15.1428H73.9372L72.801 20.0098H72.7014L71.3895 15.1428H70.183L68.8711 20.0098H68.7773L67.6353 15.1428H66.3585L68.1155 21.5209H69.4099L70.7218 16.8237H70.8214L72.1392 21.5209H73.4452L75.1964 15.1428Z" fill="white"/>
<path d="M76.6466 21.5209H77.9058V17.7901C77.9058 16.7944 78.4973 16.1736 79.4286 16.1736C80.3598 16.1736 80.8049 16.6832 80.8049 17.7081V21.5209H82.0641V17.3918C82.0641 15.8749 81.2793 15.0198 79.8561 15.0198C78.8956 15.0198 78.2631 15.4474 77.9526 16.156H77.8589V15.1428H76.6466V21.5209Z" fill="white"/>
<path d="M84.0473 21.5209H85.3065V12.6537H84.0473V21.5209Z" fill="white"/>
<path d="M90.0423 21.6439C91.9048 21.6439 93.0469 20.3964 93.0469 18.3289C93.0469 16.2732 91.8989 15.0198 90.0423 15.0198C88.1798 15.0198 87.0319 16.2732 87.0319 18.3289C87.0319 20.3964 88.174 21.6439 90.0423 21.6439ZM90.0423 20.5252C88.9471 20.5252 88.3321 19.7228 88.3321 18.3289C88.3321 16.9467 88.9471 16.1385 90.0423 16.1385C91.1317 16.1385 91.7525 16.9467 91.7525 18.3289C91.7525 19.717 91.1317 20.5252 90.0423 20.5252Z" fill="white"/>
<path d="M96.7987 20.5662C96.1135 20.5662 95.6157 20.2324 95.6157 19.6584C95.6157 19.0962 96.0139 18.7975 96.8924 18.7389L98.4504 18.6393V19.1723C98.4504 19.963 97.7475 20.5662 96.7987 20.5662ZM96.4766 21.6263C97.3141 21.6263 98.0111 21.2632 98.3918 20.6248H98.4914V21.5209H99.7037V17.1634C99.7037 15.8163 98.8018 15.0198 97.2029 15.0198C95.7562 15.0198 94.7254 15.7226 94.5966 16.8179H95.8148C95.9553 16.3669 96.4415 16.1092 97.1443 16.1092C98.0052 16.1092 98.4504 16.4899 98.4504 17.1634V17.714L96.7226 17.8135C95.2057 17.9072 94.3506 18.569 94.3506 19.717C94.3506 20.8825 95.2467 21.6263 96.4766 21.6263Z" fill="white"/>
<path d="M103.977 21.6263C104.855 21.6263 105.599 21.2105 105.98 20.5135H106.079V21.5209H107.286V12.6537H106.027V16.156H105.933C105.587 15.4532 104.85 15.0374 103.977 15.0374C102.366 15.0374 101.33 16.3142 101.33 18.3289C101.33 20.3495 102.355 21.6263 103.977 21.6263ZM104.334 16.1677C105.388 16.1677 106.05 17.0053 106.05 18.3348C106.05 19.6701 105.394 20.4959 104.334 20.4959C103.268 20.4959 102.63 19.6818 102.63 18.3289C102.63 16.9877 103.274 16.1677 104.334 16.1677Z" fill="white"/>
<path d="M115.452 21.6439C117.314 21.6439 118.456 20.3964 118.456 18.3289C118.456 16.2732 117.308 15.0198 115.452 15.0198C113.589 15.0198 112.441 16.2732 112.441 18.3289C112.441 20.3964 113.583 21.6439 115.452 21.6439ZM115.452 20.5252C114.356 20.5252 113.741 19.7228 113.741 18.3289C113.741 16.9467 114.356 16.1385 115.452 16.1385C116.541 16.1385 117.162 16.9467 117.162 18.3289C117.162 19.717 116.541 20.5252 115.452 20.5252Z" fill="white"/>
<path d="M120.123 21.5209H121.382V17.7901C121.382 16.7944 121.974 16.1736 122.905 16.1736C123.836 16.1736 124.281 16.6832 124.281 17.7081V21.5209H125.541V17.3918C125.541 15.8749 124.756 15.0198 123.332 15.0198C122.372 15.0198 121.739 15.4474 121.429 16.156H121.335V15.1428H120.123V21.5209Z" fill="white"/>
<path d="M131.34 13.5556V15.1721H130.327V16.2322H131.34V19.8341C131.34 21.0641 131.896 21.556 133.296 21.556C133.542 21.556 133.776 21.5267 133.981 21.4916V20.4432C133.806 20.4608 133.694 20.4725 133.501 20.4725C132.874 20.4725 132.599 20.1797 132.599 19.512V16.2322H133.981V15.1721H132.599V13.5556H131.34Z" fill="white"/>
<path d="M135.672 21.5209H136.931V17.7959C136.931 16.8296 137.505 16.1795 138.536 16.1795C139.426 16.1795 139.9 16.6949 139.9 17.714V21.5209H141.159V17.4035C141.159 15.8866 140.322 15.0257 138.963 15.0257C138.003 15.0257 137.329 15.4532 137.019 16.1677H136.919V12.6537H135.672V21.5209Z" fill="white"/>
<path d="M145.702 16.0916C146.633 16.0916 147.242 16.7417 147.272 17.7432H144.05C144.121 16.7476 144.771 16.0916 145.702 16.0916ZM147.266 19.799C147.032 20.2968 146.51 20.5721 145.749 20.5721C144.742 20.5721 144.091 19.8634 144.05 18.7448V18.6745H148.554V18.2352C148.554 16.2322 147.483 15.0198 145.708 15.0198C143.91 15.0198 142.768 16.3142 142.768 18.3523C142.768 20.3905 143.886 21.6439 145.714 21.6439C147.172 21.6439 148.191 20.9411 148.478 19.799H147.266Z" fill="white"/>
<path d="M35.6149 29.4245C35.6454 27.0524 36.9194 24.8078 38.9403 23.5654C37.6654 21.7445 35.5299 20.5901 33.3082 20.5205C30.9385 20.2718 28.6413 21.9385 27.4337 21.9385C26.2028 21.9385 24.3436 20.5452 22.3416 20.5864C19.732 20.6707 17.2992 22.1544 16.0296 24.4359C13.3005 29.161 15.3362 36.1053 17.9505 39.9248C19.2585 41.795 20.7872 43.8842 22.7874 43.8101C24.7447 43.7289 25.4758 42.5619 27.8385 42.5619C30.1792 42.5619 30.8651 43.8101 32.9059 43.763C35.0062 43.7289 36.3295 41.8844 37.5916 39.9964C38.5314 38.6638 39.2546 37.1909 39.7344 35.6324C37.2661 34.5885 35.6178 32.1045 35.6149 29.4245Z" fill="white"/>
<path d="M31.7601 18.0087C32.9053 16.6339 33.4695 14.8669 33.3328 13.0829C31.5832 13.2667 29.9671 14.1029 28.8065 15.4249C27.6715 16.7165 27.0808 18.4525 27.1925 20.1683C28.9427 20.1863 30.6633 19.3728 31.7601 18.0087Z" fill="white"/>
<rect x="1.36768" y="1.48261" width="167.927" height="55.0348" rx="9.17247" stroke="#A6A6A6" stroke-width="1.41115"/>
</svg>
