<svg width="860" height="532" viewBox="0 0 860 532" fill="none" xmlns="http://www.w3.org/2000/svg">
<path d="M726.069 109.95C727.256 108.393 729.263 107.214 728.362 104.681C728.279 104.064 728.785 103.157 729.113 102.484L731.057 99.2879L729.157 98.1472C730.319 95.5743 732.212 93.3998 734.6 91.8941C735.625 91.495 736.731 91.3458 737.825 91.459C738.511 91.3664 739.299 92.0286 740.081 92.1325C740.633 92.2437 741.206 92.1995 741.734 92.0048C742.263 91.8102 742.727 91.4727 743.076 91.0299C743.673 90.5141 744.204 89.9262 744.656 89.2799C746.392 85.0638 750.374 82.9898 753.549 80.1165C754.866 78.7202 756.608 77.7976 758.503 77.492C759.139 77.4031 759.734 77.1284 760.213 76.7024C761.789 75.3562 763.806 74.6366 765.878 74.6807C767.138 74.5019 768.324 73.9793 769.307 73.1702C772.053 71.052 775.053 69.2861 778.238 67.9136C781.694 66.2988 784.939 64.2656 787.899 61.8598C791.936 59.2679 795.798 56.4132 799.46 53.3143C800.165 52.6836 800.97 52.1738 801.841 51.8055C804.606 50.5534 807.138 48.8417 809.331 46.7433C811.534 44.7066 814.041 43.025 816.762 41.7589C817.758 41.4529 818.683 40.9489 819.481 40.2771C820.279 39.6054 820.932 38.7796 821.404 37.8493C825.3 34.8658 829.39 32.1436 833.647 29.7008C836.486 28.4795 839.278 26.9152 842.08 25.4194C842.766 25.3268 843.039 24.2422 843.592 23.6786C845.25 21.988 846.578 19.9226 849.263 19.6302C849.606 19.584 850.236 19.0797 850.19 18.7367C849.931 16.8157 852.336 16.0022 852.772 14.0573L850.925 12.2806C851.287 11.7746 851.69 11.2996 852.131 10.8605C852.88 10.2006 853.611 9.40346 854.645 9.82272C855.68 10.242 854.914 11.8123 855.053 12.8414L858.56 15.0226C859.292 16.4357 859.514 18.0576 859.19 19.6153C858.866 21.1731 858.015 22.5716 856.781 23.5756C855.223 24.9733 853.811 26.4212 852.331 27.8783C851.829 28.2954 851.473 28.7625 851.918 29.4709L854.182 29.1654L853.777 30.8267C851.483 31.3161 849.239 32.0164 847.074 32.9187C845.208 34.1716 843.483 35.6222 841.929 37.2453L830.32 46.9849C828.85 48.1911 827.294 49.2882 825.664 50.2677C823.698 51.6315 821.822 53.1213 820.048 54.7277C816.836 57.3266 813.743 59.7698 810.316 62.3278C806.889 64.8859 805.509 66.0501 803.262 68.0299C801.654 69.5508 799.684 70.6344 797.539 71.1771C796.618 71.4265 795.728 71.7809 794.887 72.2335C789.741 75.0134 784.921 78.3582 780.515 82.2061C780.515 82.2061 780.58 82.6863 779.95 83.1905L783.587 83.7475C783.717 84.708 783.439 85.2345 782.817 85.8073L778.816 89.2812C778.807 90.3913 778.723 91.4996 778.565 92.5983C778.206 94.6026 778.154 96.2862 780.347 97.5271C781.41 98.1522 781.202 99.7171 780.233 100.826C779.325 101.953 778.321 103 777.233 103.955C776.423 104.589 775.776 105.406 775.343 106.338C774.911 107.271 774.705 108.293 774.743 109.32C774.758 111.058 774.446 112.783 773.823 114.404C773.878 114.816 773.98 115.571 774.026 115.914C774.073 116.257 775.261 115.747 775.81 115.673C776.598 115.018 777.522 114.546 778.514 114.292C779.507 114.037 780.543 114.006 781.549 114.2C783.738 114.473 785.96 114.174 787.998 113.33C789.898 112.934 791.824 112.674 793.761 112.552L793.803 115.97C795.998 115.673 797.721 114.463 800.063 114.217C800.174 115.04 800.285 115.863 800.406 116.755C800.495 117.958 800.962 119.103 801.738 120.026C802.515 120.95 803.562 121.605 804.732 121.9C805.144 121.844 805.561 122.347 805.932 122.506C807.68 127.194 808.17 132.258 807.354 137.194C809.251 139.329 810.441 141.999 810.761 144.837C809.73 146.513 808.558 148.697 807.092 150.781C805.381 153.26 804.052 155.982 803.152 158.857C802.483 160.624 801.959 162.441 801.267 164.56C801.892 166.082 805.048 165.657 804.573 168.864C803.94 169.752 803.077 170.449 802.075 170.88C801.074 171.311 799.974 171.459 798.894 171.307C797.174 170.948 795.382 171.19 793.818 171.992C792.092 172.797 790.321 173.502 788.514 174.105C788.199 174.489 787.951 174.924 787.78 175.391C787.43 177.293 786.487 179.035 785.085 180.366C783.683 181.698 781.895 182.55 779.978 182.801C778.711 182.983 777.511 183.484 776.491 184.257C775.471 185.03 774.664 186.049 774.147 187.22C773.249 188.897 772.116 190.438 770.783 191.795C769.281 193.605 767.943 195.602 766.519 197.47C764.424 200.487 762.013 203.271 759.327 205.775C756.408 208.475 753.731 211.42 750.977 214.307C750.977 214.307 751.051 214.856 751.098 215.199C751.144 215.542 752.718 215.818 753.601 215.629C755.193 215.422 756.684 214.733 757.875 213.656C761.249 210.274 764.96 207.245 768.95 204.617C768.663 205.524 768.484 206.463 768.419 207.413C768.622 208.198 768.982 208.934 769.479 209.575C769.975 210.374 770.521 211.141 771.116 211.869C770.582 214.167 770.593 216.558 771.15 218.85C770.41 219.721 769.85 220.731 769.506 221.821C769.161 222.912 769.037 224.06 769.143 225.198C769.077 226.464 768.846 227.716 768.457 228.923C767.435 233.252 768.925 235.496 773.501 236.276L776.484 236.642L774.524 240.748C773.624 240.8 772.729 240.921 771.848 241.109C771.109 241.342 770.424 241.719 769.832 242.22C769.555 242.378 769.312 242.592 769.119 242.848C768.927 243.104 768.788 243.396 768.713 243.707C768.637 244.018 768.626 244.341 768.679 244.657C768.732 244.972 768.85 245.273 769.023 245.542C769.178 245.872 769.411 246.158 769.702 246.376C769.994 246.593 770.334 246.736 770.694 246.791C771.053 246.846 771.421 246.812 771.764 246.691C772.107 246.571 772.415 246.367 772.661 246.099C774.217 245.054 775.878 244.175 777.616 243.475C778.433 242.935 779.385 242.637 780.364 242.615C781.159 242.582 781.93 242.335 782.597 241.901C783.263 241.467 783.801 240.861 784.153 240.148C785.536 238.215 787.249 236.541 789.214 235.204C790.958 233.609 792.545 231.851 793.954 229.954C794.4 229.326 794.906 228.743 795.466 228.213C795.973 227.691 796.641 227.355 797.363 227.257C798.084 227.16 798.817 227.307 799.445 227.676L801.922 228.948C803.445 231.956 801.587 234.233 800.411 236.906L803.377 238.183C804.861 238.821 806.396 237.775 807.976 238.61C809.555 239.445 811.065 239.241 812.589 239.664C814.113 240.087 815.577 240.588 817.101 241.011C817.54 240.984 817.975 240.925 818.405 240.835C820.254 238.49 820.254 238.49 822.449 238.194C823.462 238.965 822.69 239.978 822.801 240.801C822.912 241.624 822.463 243.99 822.461 245.527C822.357 246.319 822.466 247.124 822.776 247.86C823.78 249.61 825.05 251.255 826.192 252.987C828.912 251.922 829.258 247.754 832.896 248.311C833.183 248.591 833.368 248.959 833.421 249.357C833.475 249.755 833.394 250.159 833.192 250.506C832.194 252.946 831.947 255.773 829.222 257.329C828.566 257.798 828.091 258.479 827.876 259.257C827.204 262.561 824.38 264.409 822.696 266.941C821.884 267.926 820.874 268.729 819.73 269.297C818.488 270.021 817.403 270.985 816.539 272.133C815.674 273.281 815.047 274.591 814.695 275.984C814.41 276.874 813.98 277.711 813.422 278.461C812.514 279.547 811.76 280.754 811.182 282.047C810.813 282.935 809.565 283.522 808.56 284.356C808.612 287.935 807.276 291.395 804.833 294.01C802.101 296.545 802.032 296.554 798.976 296.687C798.757 296.159 798.479 295.657 798.146 295.192C797.738 294.758 797.184 294.274 796.695 294.27C796.119 294.444 795.607 294.78 795.219 295.238C794.988 295.477 794.856 295.794 794.849 296.126C794.513 297.778 794.246 299.421 793.897 301.494C797.321 300.613 800.595 299.23 803.612 297.388C805.994 295.475 808.97 294.456 812.025 294.507C813.671 294.285 815.255 294.63 815.807 296.651C815.9 297.337 816.866 297.766 817.488 298.24C818.111 298.715 818.899 299.377 819.765 300.099C819.134 300.603 818.847 301.061 818.495 301.039C816.719 301.037 815.01 301.717 813.722 302.94C810.504 304.972 807.545 307.388 804.913 310.136C804.055 310.318 803.268 310.742 802.646 311.359C802.023 311.976 801.591 312.758 801.4 313.614C801.4 313.614 800.976 314.09 800.71 314.196C797.261 316.489 793.986 319.032 790.91 321.805C790.25 321.927 789.573 321.904 788.923 321.738C788.274 321.573 787.668 321.268 787.147 320.846C786.598 320.368 785.925 320.055 785.205 319.942C784.486 319.829 783.749 319.921 783.08 320.207C780.259 320.792 777.632 322.079 775.442 323.95C773.252 325.821 771.57 328.215 770.553 330.909C769.664 333.125 770.031 333.774 772.749 334.245L773.641 334.125C774.188 335.588 775.66 335.11 776.713 335.666C776.565 336.112 776.287 336.504 775.915 336.791C775.543 337.077 775.094 337.246 774.625 337.275C771.126 337.46 767.818 338.926 765.331 341.393C760.817 345.216 757.132 349.485 753.035 353.81C750.143 356.972 747.565 360.408 745.338 364.07C745.145 364.331 745.018 364.636 744.969 364.958C745.075 366.463 744.754 367.967 744.044 369.298C743.334 370.63 742.264 371.734 740.955 372.485C740.264 372.909 739.756 373.575 739.531 374.354C738.657 376.891 737.065 379.121 734.948 380.77C732.903 382.566 731.554 385.023 731.134 387.711C730.709 390.772 728.274 392.917 726.503 395.322C725.731 396.334 724.795 397.159 723.954 398.18C723.249 399.054 722.278 399.675 721.189 399.951C719.584 400.547 718.048 401.316 716.609 402.245C714.975 403.181 713.438 404.278 712.021 405.519C711.078 406.372 709.984 407.041 708.795 407.491C706.432 408.247 704.225 409.42 702.276 410.955C700.714 412.032 699.066 412.979 697.349 413.785C696.319 414.228 695.339 414.782 694.429 415.437C693.326 416.505 692.007 417.326 690.562 417.845C689.12 418.501 687.822 419.436 686.742 420.595C686.213 421.194 685.567 421.678 684.844 422.016C684.12 422.354 683.335 422.539 682.536 422.56C680.547 422.829 678.488 423.106 676.347 422.766C674.451 422.676 672.57 423.149 670.942 424.125C668.739 425.391 666.382 426.366 663.929 427.027C663.065 427.113 662.231 427.385 661.482 427.823C660.734 428.262 660.088 428.857 659.591 429.568C659.294 429.949 658.937 430.28 658.536 430.549L647.471 437.071C646.752 437.359 646.05 437.687 645.368 438.054C642.087 440.662 638.325 442.287 634.861 444.571C632.007 446.872 628.772 448.656 625.303 449.842C624.832 449.959 624.404 450.21 624.074 450.567C620.582 453.789 616.518 456.328 612.091 458.052C606.789 461.212 600.955 463.536 595.566 466.568C590.177 469.6 583.605 473.701 577.586 477.237C575.707 478.329 573.733 479.224 571.776 480.256C569.82 481.289 566.588 482.703 564.207 484.212C561.62 485.397 559.12 486.761 556.724 488.295C556.505 488.518 556.245 488.696 555.956 488.818C550.236 490.428 545.566 494.131 540.057 496.272C537.363 497.559 534.76 499.031 532.269 500.676C531.039 501.401 529.723 501.997 528.484 502.654C524.708 504.7 521.001 506.737 517.207 508.646C514.917 509.793 512.521 510.675 510.222 511.754C508.945 512.395 507.713 513.122 506.534 513.928C505.176 514.74 503.993 515.808 502.548 516.492L487.13 523.881C486.434 524.267 485.769 524.707 485.141 525.197C481.932 527.823 478.108 529.589 474.028 530.329C471.693 530.855 469.456 531.746 467.399 532.97C464.503 534.627 461.419 535.934 458.215 536.864C458.215 536.864 457.803 536.919 457.734 536.929C455.982 539.47 452.702 539.494 450.65 541.377C448.09 543.518 445.213 545.249 442.122 546.51C439.208 548.144 436.082 549.365 432.832 550.138C432.366 550.057 431.887 550.121 431.46 550.323C427.496 552.637 423.305 554.537 418.952 555.993C418.514 556.154 418.045 556.218 417.58 556.178C416.649 556.015 415.694 556.045 414.775 556.265C413.855 556.485 412.991 556.891 412.234 557.458C411.129 558.585 409.189 558.707 407.713 559.675C405.591 560.796 403.384 561.747 401.112 562.521C398.757 563.168 396.535 564.224 394.547 565.643C393.715 566.671 392.604 567.44 391.348 567.857C390.092 568.274 388.743 568.322 387.46 567.996C384.97 570.636 381.649 572.342 378.053 572.828C377.489 573.02 376.961 573.303 376.49 573.668C372.827 575.833 368.987 577.683 365.011 579.198C359.356 581.288 353.815 583.713 348.246 585.931C347.524 586.271 346.83 586.668 346.171 587.119C343.375 589.169 340.139 590.538 336.721 591.118C335.692 591.257 334.656 592.375 333.554 593.013C328.647 595.519 323.61 597.761 318.463 599.729C318.025 599.757 317.59 599.815 317.16 599.905C313.948 601.919 310.403 603.344 306.69 604.112C304.733 604.748 302.831 605.542 301.003 606.486C295.366 608.714 289.71 610.804 284.16 613.16C282.569 613.793 280.867 613.604 279.235 614.453C275.825 616.101 272.135 617.227 268.61 618.541C267.587 619.012 266.499 619.324 265.382 619.466C262.294 619.882 259.891 621.743 256.909 622.425C256.05 622.639 255.285 623.131 254.735 623.824C254.184 624.517 253.878 625.373 253.864 626.259C254.058 627.7 255.145 629.02 257.382 629.556C258.327 629.766 259.303 629.8 260.26 629.657C262.456 629.361 264.651 629.064 267.121 628.731C269.591 628.398 272.548 627.021 275.315 626.298C276.241 626.139 277.193 626.228 278.074 626.555C279.278 627.067 280.436 627.682 281.535 628.393C281.11 628.869 280.851 629.533 280.389 629.735C277.825 631.337 274.999 632.475 272.041 633.097C270.964 633.351 269.912 633.703 268.9 634.149C265.159 635.423 261.438 636.833 257.601 637.909C255.822 638.327 254.007 638.572 252.181 638.641C250.751 637.793 249.608 636.536 248.9 635.032C247.321 632.476 245.912 629.819 244.684 627.078C244.52 626.726 244.289 626.41 244.001 626.149C243.714 625.888 243.378 625.687 243.011 625.558C240.777 624.635 238.285 624.55 235.993 625.317C234.069 626.066 232.125 626.677 230.113 627.298C228.871 627.62 227.561 627.567 226.348 627.147C225.135 626.726 224.074 625.956 223.298 624.934C219.696 621.019 219.197 620.947 214.402 623.201C213.283 623.767 212.095 624.186 210.868 624.446C208.325 624.831 205.88 625.707 203.671 627.024C199.719 629.282 195.494 631.026 191.099 632.213C188.693 633.065 186.357 634.104 184.113 635.321C182.265 636.057 180.226 636.165 178.311 635.628C176.396 635.091 174.71 633.939 173.514 632.35C173.215 631.786 173.014 631.175 172.921 630.544C172.8 629.652 172.671 628.692 172.541 627.731C172.143 624.781 170.293 623.494 167.417 624.441C163.402 625.751 159.26 624.563 155.342 626.07C154.611 626.215 153.852 626.087 153.209 625.711C152.566 625.334 152.084 624.735 151.853 624.026C151.564 623.373 151.08 622.825 150.468 622.457C149.856 622.089 149.145 621.92 148.432 621.973L147.463 619.449C147.501 619.118 147.6 618.797 147.754 618.502C149.166 617.054 150.723 615.656 152.048 614.08C152.529 613.36 152.871 612.555 153.055 611.709C150.936 611.017 148.939 612.264 147.079 610.909L147.808 609.064C143.301 608.275 143.301 608.275 140.056 610.11L140.593 614.089C138.568 615.131 136.889 615.637 135.249 613.832C135.249 613.832 134.37 613.532 133.94 613.45C133.711 612.859 133.339 612.335 132.857 611.924C132.374 611.513 131.797 611.229 131.178 611.098C130.482 611.454 129.742 611.719 128.978 611.884C127.758 611.824 126.538 612.016 125.395 612.446C124.251 612.877 123.209 613.538 122.331 614.388C121.646 614.706 120.88 614.809 120.135 614.684C118.283 614.934 116.43 615.184 114.578 615.434C112.726 615.684 112.612 616.397 112.835 618.044C114.347 618.237 115.874 618.288 117.396 618.197C120.994 617.652 124.552 616.868 128.047 615.852C130.105 615.574 132.575 615.241 133.999 613.372L134.37 616.116C133.83 616.883 133.14 617.532 132.341 618.024C131.543 618.516 130.654 618.84 129.726 618.978C127.393 619.293 125.048 620.028 122.93 620.384C122.167 620.432 121.425 620.654 120.762 621.034C120.098 621.415 119.531 621.942 119.105 622.577C119.59 623.07 120.141 624.044 120.552 623.988C122.268 623.757 123.975 624.504 125.698 623.294C127.73 622.428 129.958 622.127 132.147 622.424C132.147 622.424 132.614 622.78 133.081 623.136C133.548 623.492 132.219 624.51 131.56 624.808C128.046 626.508 124.288 627.652 120.422 628.197C118.501 628.456 116.37 629.233 114.492 627.74C115.488 626.837 115.462 625.094 117.178 624.863C117.178 624.863 117.547 623.975 117.432 623.641C117.359 623.421 117.241 623.219 117.086 623.047C116.93 622.876 116.741 622.739 116.529 622.645C115.224 622.251 113.835 622.221 112.514 622.56C111.193 622.898 109.99 623.591 109.034 624.564C108.053 625.538 106.862 626.272 105.552 626.711C102.777 627.794 100.283 629.492 98.258 631.677C97.5067 632.691 96.4525 633.44 95.2476 633.816C94.0427 634.192 92.7496 634.176 91.5547 633.769L90.555 626.359C97.1472 623.444 96.0811 623.308 95.9411 618.647C96.6495 618.202 96.5346 617.868 95.793 617.549C95.835 617.084 95.7717 616.615 95.6078 616.177C95.5338 615.628 95.0796 614.851 94.6495 614.769C94.2193 614.688 93.5518 614.918 92.9343 615.001C92.3169 615.084 92.5913 615.047 92.5913 615.047C91.8693 618.498 88.8283 619.257 86.2768 620.021C81.3938 621.29 76.6455 623.031 72.0986 625.217C70.2331 625.987 68.3058 626.597 66.3373 627.042C66.652 629.375 68.3748 628.164 69.2999 628.808C70.5335 630.393 71.1041 632.394 70.8916 634.391L65.9955 639.523L62.5973 637.117C61.9112 637.21 60.8097 637.847 60.55 638.511C59.1883 642.397 55.6207 642.878 52.5851 644.196C49.5833 643.693 47.0928 645.426 44.2707 645.737L43.0357 645.904C41.8177 645.16 41.2857 644.324 41.8144 643.065L43.8884 638.244C44.4358 637.793 45.0983 637.504 45.8014 637.409C46.5045 637.314 47.2201 637.417 47.8676 637.707C48.9587 637.977 50.1113 637.821 51.0921 637.272C51.1384 637.615 51.2217 638.233 51.7057 637.678L50.9641 637.359C51.5707 636.16 52.1864 635.029 52.7244 633.839C52.9057 633.281 53.0155 632.703 53.0511 632.118L60.0691 632.359L62.3299 629.958L63.0312 627.907C62.4253 628.061 61.8038 628.145 61.1788 628.157C60.2896 627.833 59.3142 627.832 58.425 628.157C57.5357 628.481 56.7897 629.11 56.3186 629.931C56.3186 629.931 55.0151 630.107 54.1232 630.227L52.9695 632.548C52.2288 631.944 51.4092 631.444 50.5333 631.061C49.051 630.626 47.4759 630.62 45.9906 631.045C43.7795 631.756 41.5167 632.295 39.2225 632.657C38.1081 632.743 37.0405 633.141 36.1419 633.806C35.2433 634.471 34.55 635.375 34.1413 636.416C33.4416 639.514 30.7529 640.296 28.9076 642.152L25.8895 639.974C25.8769 639.372 25.7962 638.774 25.6488 638.19C25.5624 638.009 25.4395 637.848 25.2876 637.716C25.1358 637.585 24.9585 637.487 24.7667 637.427C24.5749 637.368 24.3729 637.349 24.1734 637.371C23.9739 637.394 23.7812 637.457 23.6075 637.558C22.8528 637.66 22.3557 638.635 21.6103 638.805C20.8649 638.976 21.2057 640.467 20.5621 641.392C18.5287 641.856 16.5338 642.476 14.5949 643.245C12.6794 644.062 10.7453 644.742 8.87991 645.413C8.28027 645.726 7.62449 645.918 6.95042 645.976C6.27635 646.035 5.59736 645.959 4.95265 645.754C4.30794 645.549 3.71036 645.218 3.19425 644.78C2.67815 644.343 2.25376 643.807 1.94573 643.205C1.3794 642.426 0.622215 641.807 -0.252953 641.406C-1.97943 640.58 -3.77634 639.911 -5.62223 639.406C-8.0251 638.682 -10.4688 638.174 -12.8439 637.656C-13.4722 637.602 -14.1047 637.688 -14.6963 637.906L-14.9092 636.328L-15.4581 636.402L-15.2452 637.98C-16.3429 638.128 -17.5778 638.295 -18.6139 636.828C-19.7177 635.889 -20.9517 635.114 -22.2774 634.528C-22.4718 633.087 -21.9393 631.339 -23.6838 630.317C-25.4284 629.295 -23.9523 628.327 -24.1189 627.092C-22.1483 626.116 -20.5683 624.499 -19.6383 622.506C-18.788 621.182 -17.779 619.967 -16.6338 618.887C-15.675 617.71 -13.8912 617.469 -13.2122 615.771C-12.6124 614.623 -11.8917 613.542 -11.0625 612.547C-6.73645 611.474 -6.08035 612.713 -1.28602 615.629L1.11353 614.257C1.93701 613.832 2.88237 613.704 3.78919 613.896C6.59726 614.254 9.42298 614.456 12.2534 614.501L12.4293 615.804L11.7433 615.897L12.2921 615.823C13.1534 615.724 13.9722 615.395 14.6634 614.872C15.3546 614.349 15.8927 613.65 16.2217 612.847C17.1459 611.193 18.5082 609.825 20.1589 608.893C22.7891 607.425 25.878 607.008 28.8033 607.727C30.4951 607.9 32.203 607.834 33.8765 607.531C38.2673 606.939 42.4321 605.189 46.9247 605.352C47.3364 605.296 47.8166 605.231 48.2283 605.176C48.6399 605.12 49.4338 603.756 50.5592 603.813C51.6847 603.871 53.6466 603.397 55.1891 603.957C55.8366 604.247 56.5521 604.351 57.2552 604.256C57.9583 604.161 58.6209 603.872 59.1683 603.42C60.1364 602.312 61.349 602.497 62.6672 602.948C63.6805 603.121 64.7196 603.067 65.7091 602.788C66.6985 602.51 67.6136 602.014 68.3877 601.338C70.6081 600.654 72.9262 600.341 75.2484 600.412C76.0031 600.31 76.8263 600.199 77.581 600.098C83.0695 599.357 88.7638 598.589 90.9941 591.302L89.9802 589.483C89.6561 589.489 89.3337 589.532 89.0197 589.613C86.6871 589.927 84.4378 590.86 82.2609 591.293C81.9758 591.29 81.696 591.217 81.446 591.081C81.196 590.944 80.9835 590.747 80.8277 590.508C80.7451 590.21 80.738 589.896 80.807 589.594C80.876 589.292 81.019 589.012 81.2231 588.779C82.3677 587.943 83.5747 587.196 84.8336 586.545C85.9102 585.834 86.6643 584.729 86.9332 583.467C87.1345 582.956 87.1703 582.394 87.0357 581.861C86.9011 581.328 86.6029 580.85 86.1828 580.495C86.0696 580.313 85.9961 580.108 85.9674 579.895C85.9387 579.683 85.9553 579.466 86.0162 579.26C85.8959 578.368 86.5988 577.365 87.0404 575.978C87.8739 576.833 88.63 577.759 89.3 578.747C89.9992 580.186 91.1753 581.339 92.6284 582.009C94.0815 582.679 95.7219 582.825 97.2705 582.422C99.5639 582.116 101.873 581.945 104.187 581.908L106.813 579.109C107.455 577.136 106.267 575.061 108.501 573.502C111.454 575.193 114.107 577.361 116.352 579.917C117.882 580.41 119.517 580.474 121.08 580.103C122.643 579.732 124.075 578.94 125.219 577.813C125.085 577.133 124.992 576.446 124.942 575.754C124.676 574.122 124.888 572.449 125.551 570.934C126.214 569.419 127.301 568.129 128.68 567.217C129.937 566.557 131.029 565.622 131.873 564.481C131.873 564.481 131.818 564.069 131.799 563.932L129.749 560.646C123.479 561.448 117.333 563.028 111.453 565.35C111.703 567.202 112.672 567.141 113.683 566.865C113.896 566.83 114.115 566.849 114.319 566.919C114.523 566.989 114.707 567.108 114.855 567.266C114.977 567.444 115.056 567.649 115.085 567.863C115.114 568.078 115.092 568.296 115.021 568.501C114.674 569.049 114.219 569.521 113.684 569.887C113.148 570.254 112.543 570.508 111.907 570.633C111.27 570.758 110.614 570.752 109.98 570.615C109.345 570.479 108.745 570.214 108.216 569.838C107.534 569.45 106.888 568.999 106.288 568.491C105.843 567.931 105.229 567.529 104.537 567.345C103.846 567.162 103.113 567.206 102.448 567.473C101.39 567.808 100.248 567.765 99.2185 567.35C98.7752 567.148 98.2883 567.06 97.8025 567.096C97.3166 567.131 96.8475 567.288 96.438 567.552C96.0285 567.815 95.6919 568.178 95.459 568.606C95.2262 569.034 95.1046 569.513 95.1054 570C94.8528 572.27 93.8106 572.83 91.858 573.372C88.7349 574.023 85.4934 573.808 82.4834 572.751C80.0849 571.926 77.4903 571.862 75.0538 572.566L77.5759 570.549C77.6112 569.089 77.5308 567.628 77.3357 566.181C76.8616 564.181 76.8678 562.098 77.3537 560.101C77.786 558.646 76.9093 556.808 76.6686 555.024C72.6882 554.338 68.5932 554.891 64.9369 556.607C64.3766 556.855 63.9176 557.287 63.6351 557.831C62.8659 559.139 61.8227 560.266 60.5772 561.133C59.3317 562 57.9134 562.588 56.4194 562.856C53.7584 563.844 50.8622 563.606 48.266 565.074C47.0909 565.486 45.8355 565.617 44.6005 565.456C43.3656 565.295 42.1856 564.847 41.1555 564.147L34.0439 568.39C33.0161 569.125 32.2092 570.128 31.7107 571.289C31.4135 572.045 30.8552 572.668 30.1373 573.047C29.4193 573.426 28.5893 573.535 27.7979 573.354C27.3389 573.237 26.856 573.253 26.4058 573.4C25.9555 573.547 25.5565 573.82 25.2557 574.186C24.7563 574.696 24.1237 575.055 23.4299 575.223C22.7362 575.391 22.0093 575.36 21.3321 575.134L18.0688 574.248C16.9063 573.915 15.7477 573.094 14.4311 573.691C13.5962 573.903 12.8158 574.291 12.1416 574.827C11.4674 575.364 10.9148 576.037 10.52 576.803C10.432 577.002 10.2833 577.169 10.0953 577.279C8.3115 577.52 6.85772 578.135 5.39466 578.682C3.9316 579.229 2.6613 580.168 1.20749 580.784C0.612445 581.096 -0.0388002 581.285 -0.708124 581.343C-1.37745 581.4 -2.05141 581.323 -2.69066 581.116C-3.32991 580.91 -3.92163 580.578 -4.43114 580.14C-4.94065 579.702 -5.35777 579.168 -5.6581 578.567C-6.28646 577.534 -7.64168 576.808 -7.15927 575.207C-7.15927 575.207 -8.07518 574.632 -8.5331 574.344C-6.68586 572.932 -4.55852 571.93 -2.2932 571.406C-0.000192795 570.731 2.21794 569.823 4.32678 568.697C4.55092 568.606 4.75264 568.468 4.9178 568.292C5.08295 568.115 5.20759 567.905 5.28302 567.675C5.35846 567.445 5.3829 567.202 5.35457 566.962C5.32625 566.722 5.24584 566.491 5.11903 566.285C4.74759 565.804 4.50928 565.234 4.42803 564.632C4.34679 564.03 4.42547 563.417 4.65618 562.855C5.74205 562.46 6.79909 561.991 7.81966 561.45C9.09399 560.603 10.5744 560.118 12.1028 560.047C13.6312 559.976 15.1501 560.322 16.4973 561.047C17.5743 561.625 18.785 561.906 20.0062 561.864C21.2275 561.822 22.4158 561.458 23.4505 560.808C25.7216 559.671 28.19 558.983 30.7212 558.779C32.4366 558.488 34.1331 558.096 35.8019 557.604L39.0396 556.748C43.2932 556.174 47.5468 555.6 51.6893 554.203C54.9368 553.436 57.9804 551.977 60.6124 549.926C61.0111 549.553 61.5159 549.314 62.0568 549.241C62.5977 549.168 63.1479 549.265 63.6311 549.518C64.1893 549.767 64.8061 549.853 65.4111 549.767C69.0814 549.309 72.541 547.799 75.3727 545.419C75.2965 544.336 75.1512 543.259 74.9376 542.195C74.6599 540.137 73.401 539.608 71.0722 539.433L70.6606 539.489C65.3076 539.163 64.1472 537.294 65.8634 531.893C66.9611 531.745 67.0723 532.568 67.3113 533.304C67.5504 534.04 67.4131 534.059 67.4317 534.196C68.0769 534.565 68.7993 534.779 69.5415 534.819C69.8846 534.773 70.4595 533.857 70.3947 533.377C70.1391 530.597 70.9364 527.822 72.6287 525.601L79.2575 525.545C80.3944 524.134 80.8545 522.885 82.8348 522.548C86.7454 522.02 86.8826 522.001 85.964 525.548C85.5372 527.562 86.3899 528.704 88.5575 528.202C90.099 527.771 91.722 527.719 93.2876 528.053C94.2175 528.103 95.1484 527.977 96.0318 527.683C99.294 526.966 102.697 527.263 105.786 528.532C106.89 528.874 108.022 529.118 109.168 529.263L111.997 533.143C118.362 533.283 124.691 532.168 130.625 529.861C132.101 529.295 133.34 528.24 134.134 526.873C135.473 523.339 138.833 521.838 141.153 519.359C141.952 518.553 142.917 517.934 143.638 517.068C143.722 516.817 143.747 516.551 143.711 516.289C143.676 516.028 143.581 515.778 143.435 515.558C143.148 515.48 142.848 515.46 142.553 515.5C142.259 515.539 141.975 515.638 141.719 515.79C141.171 515.864 140.939 516.733 140.514 517.21C139.993 517.65 139.44 518.052 138.86 518.411C136.794 516.677 134.41 515.361 131.841 514.538C130.239 514.056 129.618 512.044 128.984 510.453C127.664 507.898 127.268 504.965 127.864 502.151C127.808 501.74 127.734 501.191 127.679 500.779C128.581 498.143 126.25 496.92 125.305 495.092C125.249 494.68 124.115 494.554 123.556 494.559C122.998 494.565 121.978 494.772 121.224 494.874C120.462 494.914 119.707 494.724 119.055 494.329C118.285 493.527 117.342 492.913 116.297 492.533C115.253 492.154 114.136 492.018 113.031 492.138C111.834 492.177 110.643 491.963 109.535 491.511C108.427 491.059 107.426 490.378 106.599 489.513C105.946 488.146 105.716 486.616 105.936 485.118C106.157 483.62 106.82 482.222 107.839 481.102C109.193 478.979 110.869 477.079 112.808 475.472C114.36 474.342 115.709 472.955 116.795 471.372C117.52 470.618 117.969 469.642 118.07 468.601C118.17 467.561 117.916 466.517 117.349 465.639C116.882 464.734 116.54 463.769 116.333 462.772C115.24 462.693 114.142 462.841 113.109 463.207C111.711 464.234 109.336 463.716 108.643 465.835C108.3 465.882 107.627 465.553 107.513 465.219C106.558 463.083 106.056 460.773 106.038 458.433C106.213 456.937 105.833 455.429 104.971 454.194C104.11 452.959 102.825 452.082 101.361 451.729C99.0086 450.859 96.4277 450.369 94.9874 447.979C95.3349 445.975 95.8147 443.997 96.4237 442.057C97.1936 439.997 99.8617 440.615 101.292 439.304C101.988 438.651 102.722 438.039 103.489 437.471C101.994 436.698 100.294 436.414 98.6294 436.659C96.5712 436.937 94.3072 437.243 92.3013 435.837C91.5913 435.234 90.1691 435.566 89.0436 435.508L88.6085 432.283L84.9151 431.315C84.7855 430.354 84.6652 429.462 84.5356 428.502C84.406 427.541 84.2301 426.238 82.4779 426.195C81.8302 426.213 81.1863 426.3 80.557 426.454L78.8418 426.686C79.4353 425.907 79.6357 425.321 80.0882 425.05C81.7845 423.578 83.1358 421.75 84.0461 419.696C84.3984 419.182 84.5842 418.572 84.5786 417.948C84.4163 416.201 84.7346 414.443 85.4992 412.864C85.8537 412.321 86.001 411.669 85.9143 411.027C85.8277 410.384 85.5128 409.794 85.0271 409.365C83.9494 408.424 83.2325 407.138 82.9994 405.727C82.1766 403.253 80.8993 402.587 78.1643 403.026C75.4292 403.465 74.1813 404.052 72.1508 404.536C71.5614 404.651 70.9658 404.731 70.3671 404.777C69.6409 403.987 69.2367 402.954 69.2341 401.881C69.2316 400.808 69.6309 399.774 70.3535 398.98C72.455 395.988 73.5834 392.421 73.5854 388.765C73.8177 386.958 74.2084 385.176 74.7528 383.438C76.4625 382.648 78.3002 381.772 80.1194 380.758C80.9311 380.318 81.6796 379.77 82.3447 379.13C84.0943 377.026 86.5946 375.687 89.3154 375.395C91.3983 375.292 93.4034 374.571 95.0761 373.326C96.7488 372.08 98.0136 370.366 98.71 368.4C105.126 368.116 111.173 365.318 115.542 360.61C116.708 359.526 117.787 358.353 118.771 357.101C118.906 356.543 118.827 355.956 118.549 355.454C118.408 355.282 118.225 355.149 118.019 355.067C117.812 354.985 117.588 354.957 117.368 354.985C114.856 355.441 112.371 356.033 109.923 356.758C108.49 357.318 106.955 357.572 105.417 357.503C103.88 357.434 102.374 357.043 100.997 356.355C101.015 354.853 101.404 353.379 102.128 352.063C102.852 350.747 103.889 349.629 105.148 348.81C105.616 348.523 106.138 348.338 106.681 348.264C107.224 348.191 107.777 348.232 108.304 348.384C110.004 348.779 111.775 348.756 113.464 348.316C117.819 347.439 122.123 346.322 126.355 344.97C130.301 343.669 134.284 342.643 138.345 341.676C139.543 341.373 140.8 341.396 141.987 341.743C142.934 342.035 143.631 343.058 144.497 343.78C146.555 343.502 148.667 342.588 150.729 341.821C154.656 340.383 155.263 339.184 155.073 334.669C155.07 334.058 155.177 333.452 155.39 332.879L156.851 327.653C155.907 326.872 154.835 326.178 153.951 325.32C153.067 324.345 151.845 323.743 150.534 323.635C149.223 323.526 147.919 323.92 146.887 324.736C143.988 326.4 140.856 327.623 137.597 328.365C136.336 328.777 134.983 328.818 133.7 328.483C132.416 328.149 131.256 327.453 130.356 326.477C132.582 323.325 135.547 320.766 138.991 319.025C139.827 318.493 140.769 318.227 141.615 317.763C142.201 317.514 142.724 317.135 143.143 316.655C143.562 316.175 143.867 315.606 144.035 314.992L146.338 307.207C146.489 304.881 146.174 302.548 145.412 300.346C145.272 299.799 144.961 299.312 144.523 298.956C144.085 298.6 143.544 298.394 142.98 298.369C140.14 297.864 137.214 298.259 134.61 299.498C129.653 302 124.483 304.053 119.161 305.634C117.312 306.544 115.217 306.827 113.193 306.44C112.651 305.535 113.488 305.003 113.972 304.448C115.574 302.346 117.314 300.225 118.907 298.054C119.313 297.441 119.82 296.534 119.599 295.935C118.941 293.649 120.106 292.444 121.595 291.055C122.715 289.952 123.745 288.762 124.678 287.496C124.437 285.712 124.233 284.203 123.562 282.337C124.504 281.63 125.49 280.984 126.515 280.402C128.286 279.35 130.118 278.403 132 277.566C134.78 276.423 137.752 275.673 140.444 274.401C144.847 272.34 149.566 271.075 153.629 268.571C156.537 267.566 159.506 266.745 162.518 266.114C167.597 263.892 172.658 261.532 177.746 259.379C182.835 257.225 186.582 254.973 190.894 253.274C197.532 250.701 203.607 247.577 210.108 245.023C215.275 242.929 220.161 240.313 225.24 238.091C232.746 234.703 240.349 231.512 247.915 228.046L251.238 226.271C254.103 224.553 257.104 223.073 260.211 221.846C264.5 220.499 268.124 217.845 272.316 216.301C276.509 214.758 278.844 212.906 282.74 211.751C285.662 210.636 288.494 209.296 291.21 207.744L300.184 203.32L326.432 190.767C329.509 189.234 332.374 187.171 335.537 185.766C341.128 183.196 346.439 180.104 352.145 177.867C356.26 176.264 359.824 173.688 363.783 171.966C366.409 170.222 369.298 168.912 372.341 168.087L371.998 168.133C372.265 166.49 374.262 167.828 374.968 166.335C375.675 164.843 376.975 165.156 378.269 164.912C379.3 164.567 380.248 164.011 381.053 163.279C384.323 160.929 387.898 159.036 391.68 157.654C393.661 156.705 395.543 155.562 397.297 154.241C397.761 153.835 398.307 153.533 398.898 153.357C399.489 153.181 400.111 153.134 400.722 153.22C401.614 153.1 401.089 151.284 402.467 151.657C404.394 149.774 406.874 148.558 409.543 148.188C409.925 148.121 410.282 147.955 410.58 147.706C410.877 147.458 411.104 147.135 411.238 146.772C411.951 145.837 414.021 147.723 414.059 145.413C415.203 144.898 416.288 144.259 417.295 143.509C420.281 141.163 423.491 139.115 426.878 137.396L428.807 136.158L428.464 136.204C429.593 135.384 430.776 134.641 432.006 133.98C434.306 133.038 436.487 131.829 438.506 130.379C439.981 129.187 441.788 128.479 443.681 128.353L445.993 126.854C447.794 125.703 450.31 125.712 451.473 123.46C451.473 123.46 452.022 123.386 452.297 123.349C456.613 122.207 459.764 118.639 464.159 117.557C465.119 117.427 465.872 116.278 466.759 115.599C469.11 113.752 471.626 112.126 474.277 110.743C479.358 108.528 484.161 105.723 488.587 102.385C490.545 100.764 492.713 99.4146 495.031 98.3722C497.766 97.073 500.314 95.4135 502.608 93.4379C506.138 90.8025 509.929 88.5355 513.92 86.6724C517.683 84.9425 521.166 82.6596 524.253 79.8994C524.981 79.2757 525.814 78.785 526.712 78.4499C531.09 76.5416 535.172 74.0148 538.833 70.9466C539.318 70.7814 539.83 70.7122 540.342 70.743C541.386 71.2309 541.067 71.9725 541.209 72.512C541.871 74.3089 542.727 74.9617 544.324 74.886C545.92 74.8103 548.761 74.6366 551.24 74.372C551.706 74.4164 552.175 74.3531 552.612 74.1868C554.185 73.4158 555.679 72.5855 557.261 71.883C558.843 71.1806 560.284 70.9862 561.65 70.243C565.651 67.9086 569.941 66.1086 574.41 64.8888C576.594 64.3682 578.671 63.4734 580.55 62.2442C585.485 59.6844 589.942 56.2946 593.727 52.2231C594.822 51.0884 595.984 50.0217 597.208 49.0291C601.603 50.5319 601.603 50.5318 604.905 47.5714L609.07 48.4066C611.549 45.3125 614.293 42.4411 617.273 39.8253C618.782 38.3249 620.127 36.6681 621.286 34.8828C624.16 35.4731 627.136 36.8179 629.999 33.7072L632.24 36.3388L634.86 35.5661C635.906 35.2357 637.015 35.1583 638.096 35.3404C639.177 35.5224 640.199 35.9586 641.079 36.6131C642.939 37.9689 644.963 39.512 647.418 38.552C647.575 39.7183 647.659 40.3358 647.761 41.0905L653.087 42.2578C655.286 41.5764 657.226 40.2428 658.649 38.4338C661.006 36.068 663.536 33.8819 666.219 31.8938C669.281 29.8017 671.488 26.677 672.436 23.0914L671.344 21.2128C674.069 18.3655 677.403 16.1722 681.097 14.7975C681.989 14.6772 682.545 13.6241 683.304 13.0328L688.179 9.30129C690.089 7.92588 692.513 7.24961 693.112 4.44436C693.029 3.8269 694.579 3.40817 695.347 2.88544C696.114 2.36272 695.912 1.90099 695.434 0.428669C696.214 0.239074 697.034 0.325935 697.757 0.674415C698.479 1.02289 699.058 1.61136 699.394 2.33928C700.121 3.56432 700.782 4.82775 701.372 6.12405C701.63 6.54081 701.798 7.00658 701.865 7.49179C701.933 7.97698 701.899 8.47099 701.766 8.94236C701.632 9.41373 701.402 9.85216 701.09 10.2298C700.778 10.6073 700.39 10.9158 699.953 11.1356L695.296 14.4184C694.848 14.6139 694.454 14.9168 694.151 15.3004C693.847 15.6841 693.643 16.1366 693.556 16.6179C693.469 17.0993 693.502 17.5947 693.652 18.0603C693.802 18.5259 694.065 18.9473 694.416 19.2873L694.939 20.0551C694.939 20.0551 694.939 20.0551 695.328 20.3518C696.353 20.5344 697.405 20.4836 698.408 20.2033C699.41 19.9229 700.336 19.4202 701.117 18.7324C702.025 17.8451 703.206 17.2917 704.468 17.1626C706.697 17.0135 708.827 16.1901 710.576 14.8016C713.434 12.9789 716.678 11.8476 720.05 11.4975L724.473 14.2538C724.501 15.4803 724.665 16.7 724.964 17.8899C725.417 18.9198 726.065 19.8524 726.872 20.6363C727.609 21.4449 728.612 22.1479 728.299 23.4476C728.216 24.1568 727.978 24.839 727.601 25.4454C727.223 26.0518 726.717 26.5674 726.117 26.9553C726.117 26.9553 725.624 27.4409 725.35 27.478C724.306 27.9141 723.376 28.5835 722.631 29.4347C721.886 30.286 721.346 31.2965 721.053 32.3888C721.541 33.3148 722.372 34.0135 723.368 34.3358C724.364 34.6581 725.447 34.5786 726.385 34.1143C727.4 33.6966 728.466 33.412 729.554 33.2675C730.345 33.1072 731.167 33.2341 731.873 33.6254C732.578 34.0167 733.121 34.6468 733.404 35.4025C733.82 36.266 734.051 37.2062 734.084 38.1637C734.117 39.1212 733.951 40.0751 733.596 40.9651C732.297 44.5478 730.55 47.9521 728.397 51.0972C725.379 55.1368 722.564 59.6382 719.821 63.6408C717.704 66.2166 715.419 68.6486 712.979 70.9208C710.522 73.4179 707.899 75.7276 705.598 78.3434C702.925 81.2065 700.096 83.9202 697.125 86.4723C696.156 87.5142 695.279 88.6374 694.504 89.8297C693.916 90.6965 693.532 91.6856 693.381 92.7223C693.231 93.7591 693.318 94.8165 693.635 95.8148C693.709 96.0451 693.834 96.2556 694.001 96.4303C694.168 96.605 694.372 96.7394 694.599 96.8233C694.826 96.9071 695.069 96.9383 695.309 96.9143C695.55 96.8903 695.782 96.8118 695.988 96.6849C696.864 96.0334 697.63 95.2461 698.258 94.3528C698.768 93.535 699.454 92.8408 700.266 92.3205C701.078 91.8003 701.995 91.4668 702.951 91.3444C703.544 91.9512 703.925 92.7326 704.038 93.5729C704.151 94.4131 703.991 95.2676 703.581 96.0096C702.279 98.1894 701.646 100.704 701.762 103.241C702.598 105.293 704.838 104.293 706.564 105.177C706.286 105.704 706.232 106.34 705.867 106.738L702.614 109.552C700.436 111.845 699.001 114.741 698.496 117.862C698.195 118.741 698.774 119.92 698.94 121.155L704.366 118.397L707.198 121.787C712.23 119.46 717.098 116.796 721.77 113.813C721.9 114.774 721.512 115.525 721.34 116.317L724.221 115.928C724.197 116.25 724.122 116.567 723.998 116.866C723.49 117.463 722.903 117.989 722.253 118.429C719.041 120.135 716.445 122.806 714.831 126.066C715.989 126.416 717.214 126.476 718.4 126.243C719.586 126.01 720.697 125.49 721.636 124.729C725.46 121.489 729.614 118.623 733.429 115.314C734.19 114.729 734.806 113.977 735.228 113.115C736.152 110.397 738.107 108.152 740.671 106.862C744.864 104.001 748.851 100.849 752.601 97.4288C754.896 95.7764 757.105 94.0095 759.222 92.1346C761.085 90.1614 762.785 88.0397 764.304 85.7906C764.86 84.8384 765.333 83.8397 765.717 82.8056C766.224 81.899 767.481 81.3802 767.383 80.136C767.285 78.8918 766.81 79.5147 766.673 79.5332C765.59 79.8133 764.565 80.2826 763.646 80.9195C758.557 85.6578 752.497 89.4094 747.39 94.0105C742.282 98.6115 737.658 101.611 733.121 105.785C731.25 107.743 728.818 109.072 726.16 109.589L726.069 109.95ZM102.988 620.141C102.44 620.215 101.639 619.974 101.266 621.351L102.901 620.013C102.901 620.013 103.506 620.351 103.712 620.323C104.081 620.305 104.448 620.255 104.809 620.175C104.763 619.832 104.287 619.407 104.003 619.375C103.719 619.344 102.896 619.455 102.998 620.209L102.988 620.141ZM740.008 121.621C739.4 124.358 737.05 125.583 735.255 127.292L734.19 128.204L735.514 131.798C737.455 132.724 738.767 132.616 739.973 131.196C741.049 129.675 742.231 128.231 743.512 126.877C743.206 124.613 742.975 122.898 742.771 121.388C744.086 119.747 745.878 118.554 747.899 117.972C748.996 117.743 750.05 117.342 751.021 116.782C755.709 115.258 760.12 112.988 764.085 110.06C767.493 107.446 770.179 104.006 771.888 100.066C772.73 97.507 771.826 95.4635 769.182 95.5409C767.925 95.3941 766.65 95.566 765.477 96.0407C761.849 97.8157 758.392 99.919 755.148 102.324C751.903 105.102 748.432 107.603 744.77 109.802C739.727 113.316 734.874 117.095 730.231 121.124C729.716 121.548 729.317 122.095 729.071 122.715C728.825 123.334 728.739 124.006 728.823 124.667C730.268 125.047 731.782 125.085 733.244 124.779C734.706 124.473 736.077 123.83 737.247 122.902C738.121 122.382 739.047 121.953 740.008 121.621ZM131.004 541.475C130.98 540.828 130.893 540.185 130.745 539.555C130.486 537.634 130.037 537.415 128.285 537.372C126.533 537.329 126.296 537.64 125.761 538.341C125.402 538.871 124.935 539.32 124.391 539.658C123.847 539.996 123.238 540.216 122.603 540.304L115.457 542.735C114.265 543.187 112.95 543.19 111.756 542.745C108.529 541.954 105.122 542.414 102.22 544.032C102.908 544.682 103.502 545.425 103.984 546.239C104.11 547.014 103.998 547.808 103.663 548.518C103.283 549.263 102.814 549.96 102.267 550.592C104.408 551.296 106.738 551.156 108.78 550.202C109.286 550.007 109.829 549.931 110.368 549.979C110.908 550.027 111.429 550.199 111.892 550.481C113.449 551.668 115.273 551.212 116.935 551.617C117.803 551.713 118.681 551.624 119.512 551.356C120.343 551.087 121.107 550.645 121.754 550.058C122.906 549.274 124.222 548.678 124.325 546.848C124.427 545.017 125.191 544.984 126.37 544.406C127.979 543.534 129.527 542.555 131.004 541.475ZM803.779 304.84C802.719 304.914 801.665 305.057 800.623 305.266C799.527 305.805 798.402 306.283 797.254 306.699C795.496 306.953 793.883 307.813 792.692 309.131C792.343 309.562 791.905 309.914 791.408 310.162C790.911 310.41 790.367 310.548 789.812 310.567C788.725 310.784 787.625 310.932 786.519 311.011C785.957 311.063 785.414 311.243 784.933 311.538C784.452 311.833 784.045 312.235 783.745 312.713C782.951 314.077 782.011 315.392 783.043 317.348C784.272 317.356 785.496 317.191 786.679 316.858C790.323 315.388 793.87 313.722 797.496 312.115C800.001 311.009 800.535 307.723 803.206 306.804C803.549 306.758 803.731 306.035 803.872 305.526C804.013 305.018 803.844 305.321 803.779 304.84ZM802.803 61.5254C801.246 60.3384 802.424 58.7125 801.827 57.3959C800.984 57.5927 800.154 57.8446 799.344 58.15C798.452 58.5012 797.599 58.944 796.798 59.4715L787.878 65.8444C787.399 66.2692 786.971 66.749 786.604 67.2737C786.518 67.6689 786.574 68.0816 786.761 68.44C786.761 68.44 787.443 68.837 787.631 68.672C788.878 68.0406 790.09 67.3408 791.26 66.5756C792.352 65.8694 793.279 64.9759 794.726 65.3396C794.8 65.8884 794.49 66.6986 794.948 66.9861C795.406 67.2736 796.325 67.3591 797.006 66.7084L802.803 61.5254ZM105.118 533.931L98.4146 536.023C96.1468 536.818 96.156 536.887 96.7005 539.887C99.8215 539.494 102.884 538.729 105.824 537.608L105.118 533.931ZM718.865 22.9042C717.856 24.2279 716.947 25.2587 716.125 26.4174C715.496 27.3259 714.948 28.2881 714.488 29.2928C714.411 29.4964 714.386 29.7158 714.415 29.9313C714.444 30.1468 714.526 30.3517 714.654 30.5278C714.839 30.658 715.05 30.7473 715.273 30.7896C715.495 30.8318 715.724 30.8261 715.945 30.7728C717.125 30.2994 718.263 29.7252 719.346 29.0565C720.104 28.4652 720.729 27.4028 719.923 26.6035C719.738 26.4717 719.582 26.3034 719.465 26.1089C719.347 25.9145 719.271 25.6981 719.241 25.4731C719.211 25.248 719.227 25.0192 719.288 24.8006C719.35 24.5821 719.456 24.3784 719.599 24.2023C719.599 24.2023 718.998 23.3752 718.59 22.9413L718.865 22.9042ZM90.4466 557.217C89.9044 556.349 89.3024 555.52 88.6449 554.735C88.6449 554.735 88.096 554.809 87.8215 554.847C87.5471 554.884 85.7835 556.309 85.9463 558.033C86.1091 559.758 86.8655 560.704 87.9224 560.771C88.3323 560.727 88.7283 560.597 89.0841 560.389C89.4399 560.181 89.7473 559.899 89.986 559.563C90.2247 559.227 90.3892 558.844 90.4686 558.439C90.548 558.035 90.5405 557.618 90.4466 557.217ZM8.75634 642.426L12.2515 642.443C13.1624 639.875 13.0938 639.885 11.7979 639.081C11.0474 638.631 10.1847 638.402 9.30966 638.421C8.43461 638.441 7.58277 638.707 6.85271 639.19C7.66837 640.058 9.39828 640.453 8.75634 642.426ZM797.224 118.023C796.057 118.18 795.028 118.319 794.411 118.402C792.946 119.299 791.846 120.685 791.306 122.314C791.306 122.314 791.362 122.726 791.371 122.794C791.38 122.863 791.985 123.201 792.112 123.113C794.328 121.908 796.185 120.139 797.498 117.986L797.224 118.023ZM789.736 285.15C788.158 285.363 787.54 285.446 787.047 285.932C786.554 286.418 785.148 288.423 785.977 288.87C786.805 289.318 787.761 288.63 788.372 287.988C788.985 287.347 789.244 286.683 790.01 285.113L789.736 285.15ZM229.345 621.604C230.511 621.446 231.338 620.846 231.296 620.013C231.254 619.18 230.384 618.949 229.661 618.767L228.769 618.887C228.578 618.892 228.39 618.939 228.219 619.024C228.048 619.109 227.898 619.23 227.778 619.379C227.659 619.528 227.573 619.702 227.527 619.887C227.482 620.073 227.477 620.266 227.513 620.454C227.585 621.329 228.195 621.712 229.345 621.604ZM151.826 609.849C153.409 610.194 154.7 610.439 155.737 609.321C155.807 609.117 155.829 608.899 155.8 608.684C155.771 608.47 155.692 608.265 155.57 608.086C155.405 607.928 155.208 607.805 154.993 607.726C154.778 607.646 154.549 607.613 154.32 607.626C153.756 607.768 153.234 608.044 152.8 608.431C152.365 608.818 152.031 609.304 151.826 609.849ZM780.727 73.9346C778.383 73.1331 778.383 73.1331 777.819 75.1652L780.727 73.9346ZM791.186 300.043L790.5 300.136C790.5 300.136 790.556 300.547 790.5 300.136L791.255 300.034L791.186 300.043ZM781.137 70.2467C781.137 70.2467 781.137 70.2467 780.794 70.293L781.137 70.2467Z" fill="#007AFF"/>
</svg>
