<svg width="838" height="597" viewBox="0 0 838 597" fill="none" xmlns="http://www.w3.org/2000/svg">
<path d="M711.384 117.589C712.425 115.857 714.35 114.42 713.139 111.923C712.983 111.298 713.4 110.311 713.66 109.583L715.293 106.083L713.213 105.128C714.114 102.356 715.81 99.9097 718.09 98.0938C719.096 97.568 720.214 97.2896 721.349 97.2817C722.043 97.1089 722.926 97.6989 723.741 97.7169C724.32 97.7683 724.903 97.6581 725.423 97.3984C725.944 97.1386 726.382 96.7397 726.689 96.2459C727.243 95.6488 727.721 94.9854 728.112 94.2709C729.416 89.7477 733.266 87.1679 736.198 83.8594C737.392 82.2771 739.074 81.133 740.985 80.6043C741.626 80.4411 742.206 80.0917 742.649 79.6002C744.114 78.04 746.102 77.0729 748.233 76.8832C749.506 76.5568 750.664 75.886 751.58 74.9444C754.158 72.4594 757.036 70.307 760.148 68.5375C763.512 66.4885 766.611 64.0342 769.376 61.2297C773.224 58.1122 776.863 54.745 780.27 51.1497C780.922 50.4226 781.689 49.8082 782.542 49.3314C785.237 47.733 787.641 45.6894 789.653 43.2874C791.684 40.9476 794.065 38.9378 796.713 37.33C797.701 36.9029 798.593 36.2809 799.336 35.5011C800.078 34.7214 800.655 33.7999 801.033 32.7918C804.693 29.2884 808.581 26.0312 812.672 23.0418C815.447 21.4666 818.135 19.5446 820.84 17.692C821.534 17.5192 821.691 16.3753 822.194 15.7343C823.704 13.8114 824.832 11.5415 827.554 10.9369C827.901 10.8505 828.491 10.2617 828.404 9.9149C827.92 7.9731 830.296 6.8656 830.523 4.82034L828.427 3.20658C828.741 2.64637 829.1 2.11326 829.503 1.61271C830.197 0.850553 830.856 -0.0502999 831.965 0.262594C833.074 0.575474 832.466 2.27374 832.726 3.31399L836.572 5.15445C837.483 6.52149 837.895 8.16052 837.739 9.79578C837.583 11.431 836.869 12.9626 835.716 14.1328C834.276 15.7438 832.992 17.3895 831.639 19.0525C831.17 19.5375 830.858 20.0573 831.395 20.7337L833.683 20.1635L833.456 21.9141C831.158 22.6764 828.935 23.6496 826.815 24.821C825.043 26.3182 823.437 28.0024 822.027 29.8442L811.219 41.1549C809.847 42.5594 808.375 43.8617 806.813 45.0516C804.95 46.6741 803.194 48.4155 801.557 50.2651C798.555 53.2962 795.658 56.154 792.432 59.1677C789.205 62.1813 787.921 63.5324 785.84 65.8188C784.363 67.5618 782.464 68.8971 780.324 69.6973C779.407 70.0577 778.534 70.5224 777.723 71.082C772.757 74.5182 768.19 78.4972 764.106 82.9453C764.106 82.9453 764.228 83.4307 763.638 84.0196L767.434 84.1786C767.676 85.1495 767.45 85.7213 766.877 86.3796L763.165 90.3982C763.281 91.5383 763.321 92.685 763.283 93.8304C763.143 95.9278 763.28 97.6613 765.672 98.6859C766.833 99.2068 766.797 100.836 765.929 102.084C765.124 103.343 764.213 104.531 763.205 105.635C762.446 106.377 761.874 107.289 761.536 108.295C761.198 109.301 761.103 110.373 761.259 111.423C761.471 113.204 761.346 115.009 760.891 116.744C760.994 117.16 761.184 117.923 761.271 118.27C761.357 118.617 762.519 117.959 763.074 117.821C763.808 117.059 764.702 116.47 765.692 116.097C766.681 115.723 767.741 115.573 768.796 115.658C771.073 115.691 773.319 115.131 775.315 114.034C777.219 113.412 779.166 112.927 781.14 112.583L781.571 116.085C783.79 115.532 785.42 114.094 787.796 113.576C788.003 114.408 788.21 115.24 788.435 116.142C788.664 117.366 789.272 118.488 790.173 119.347C791.075 120.207 792.224 120.76 793.458 120.93C793.874 120.826 794.359 121.295 794.758 121.416C797.083 126.028 798.161 131.169 797.883 136.326C800.072 138.303 801.596 140.907 802.246 143.783C801.378 145.62 800.423 147.994 799.155 150.299C797.68 153.036 796.626 155.981 796.028 159.033C795.541 160.922 795.211 162.845 794.741 165.099C795.554 166.59 798.745 165.795 798.621 169.14C798.073 170.123 797.265 170.937 796.287 171.492C795.308 172.048 794.196 172.324 793.071 172.291C791.265 172.118 789.453 172.569 787.939 173.57C786.259 174.591 784.523 175.516 782.737 176.339C782.457 176.769 782.251 177.244 782.129 177.743C781.986 179.733 781.215 181.628 779.928 183.153C778.64 184.678 776.902 185.756 774.963 186.231C773.684 186.561 772.51 187.211 771.551 188.12C770.592 189.029 769.88 190.167 769.482 191.427C768.75 193.25 767.762 194.959 766.548 196.503C765.212 198.53 764.066 200.731 762.816 202.81C761.008 206.143 758.85 209.273 756.378 212.148C753.689 215.249 751.277 218.575 748.778 221.849C748.778 221.849 748.916 222.404 749.003 222.751C749.089 223.097 750.736 223.203 751.62 222.909C753.231 222.515 754.682 221.639 755.782 220.399C758.861 216.546 762.326 213.017 766.122 209.868C765.93 210.831 765.853 211.815 765.894 212.797C766.191 213.58 766.645 214.294 767.227 214.895C767.826 215.659 768.474 216.384 769.167 217.064C768.879 219.482 769.162 221.934 769.993 224.223C769.332 225.201 768.873 226.301 768.643 227.459C768.413 228.617 768.416 229.809 768.653 230.965C768.729 232.272 768.635 233.583 768.373 234.865C767.814 239.424 769.598 241.557 774.382 241.838L777.485 241.875L775.939 246.312C775.021 246.467 774.117 246.692 773.234 246.986C772.502 247.308 771.842 247.773 771.292 248.353C771.024 248.548 770.8 248.795 770.631 249.079C770.462 249.363 770.354 249.679 770.311 250.006C770.269 250.334 770.294 250.667 770.384 250.985C770.475 251.302 770.629 251.598 770.838 251.854C771.034 252.175 771.306 252.442 771.63 252.633C771.953 252.823 772.319 252.931 772.694 252.947C773.069 252.962 773.442 252.886 773.781 252.723C774.119 252.56 774.412 252.316 774.634 252.013C776.112 250.765 777.717 249.674 779.421 248.758C780.198 248.112 781.142 247.698 782.143 247.565C782.955 247.44 783.719 247.1 784.354 246.579C784.988 246.058 785.471 245.375 785.751 244.603C786.951 242.463 788.52 240.551 790.384 238.956C791.993 237.122 793.422 235.138 794.653 233.031C795.039 232.336 795.493 231.68 796.006 231.073C796.468 230.48 797.115 230.059 797.845 229.878C798.574 229.696 799.343 229.764 800.029 230.071L802.715 231.096C804.619 234.009 802.97 236.556 802.067 239.433L805.256 240.406C806.85 240.893 808.307 239.646 810.022 240.323C811.738 241.001 813.264 240.621 814.876 240.882C816.488 241.143 818.047 241.491 819.659 241.752C820.106 241.674 820.546 241.565 820.977 241.424C822.608 238.808 822.608 238.808 824.828 238.255C825.954 238.932 825.277 240.058 825.484 240.89C825.692 241.722 825.499 244.201 825.671 245.779C825.654 246.603 825.857 247.417 826.258 248.136C827.488 249.819 828.977 251.363 830.346 253.011C833.016 251.609 832.898 247.292 836.694 247.451C837.021 247.707 837.252 248.064 837.352 248.466C837.453 248.868 837.416 249.292 837.247 249.671C836.5 252.287 836.567 255.217 833.948 257.122C833.328 257.678 832.918 258.43 832.785 259.253C832.47 262.719 829.781 264.936 828.34 267.726C827.619 268.829 826.674 269.767 825.565 270.48C824.372 271.363 823.368 272.475 822.611 273.752C821.854 275.028 821.36 276.443 821.156 277.913C820.964 278.858 820.618 279.765 820.131 280.599C819.322 281.816 818.685 283.14 818.239 284.532C817.961 285.485 816.747 286.229 815.81 287.199C816.269 290.866 815.291 294.568 813.08 297.528C810.565 300.439 810.495 300.456 807.375 300.939C807.09 300.422 806.747 299.939 806.353 299.499C805.885 299.1 805.262 298.666 804.759 298.718C804.189 298.961 803.701 299.364 803.354 299.878C803.144 300.149 803.045 300.49 803.076 300.831C802.919 302.565 802.831 304.281 802.708 306.447C806.121 305.156 809.324 303.365 812.211 301.133C814.438 298.9 817.377 297.516 820.517 297.222C822.181 296.808 823.845 296.982 824.641 298.994C824.814 299.687 825.854 300.017 826.547 300.434C827.24 300.85 828.123 301.44 829.094 302.083C828.504 302.671 828.261 303.174 827.897 303.191C826.074 303.39 824.398 304.283 823.215 305.683C820.143 308.133 817.381 310.948 814.991 314.067C814.132 314.351 813.373 314.875 812.804 315.579C812.235 316.282 811.88 317.134 811.782 318.034C811.782 318.034 811.4 318.571 811.14 318.709C807.86 321.453 804.787 324.434 801.946 327.629C801.283 327.828 800.585 327.882 799.9 327.786C799.215 327.689 798.558 327.446 797.976 327.071C797.358 326.643 796.632 326.398 795.881 326.364C795.13 326.33 794.384 326.508 793.73 326.877C790.902 327.797 788.352 329.416 786.317 331.584C784.282 333.752 782.828 336.399 782.089 339.279C781.428 341.654 781.879 342.278 784.721 342.454L785.623 342.229C786.35 343.668 787.806 343.011 788.95 343.462C788.849 343.937 788.608 344.37 788.259 344.706C787.91 345.043 787.467 345.267 786.99 345.35C783.42 345.936 780.192 347.816 777.92 350.63C773.721 355.064 770.424 359.863 766.711 364.766C764.102 368.339 761.846 372.157 759.976 376.167C759.808 376.457 759.712 376.784 759.698 377.12C759.977 378.652 759.819 380.232 759.241 381.679C758.664 383.125 757.69 384.38 756.433 385.299C755.772 385.812 755.326 386.553 755.183 387.378C754.575 390.081 753.194 392.549 751.208 394.482C749.314 396.557 748.208 399.23 748.082 402.037C747.993 405.226 745.737 407.704 744.193 410.372C743.516 411.498 742.648 412.451 741.902 413.594C741.277 414.571 740.352 415.318 739.265 415.724C737.685 416.518 736.197 417.481 734.826 418.598C733.255 419.744 731.802 421.044 730.489 422.478C729.618 423.46 728.571 424.271 727.402 424.867C725.064 425.911 722.931 427.365 721.106 429.161C719.625 430.443 718.042 431.602 716.371 432.624C715.364 433.196 714.422 433.875 713.561 434.65C712.551 435.872 711.291 436.863 709.867 437.559C708.462 438.397 707.236 439.503 706.259 440.815C705.784 441.49 705.176 442.059 704.472 442.488C703.768 442.917 702.983 443.196 702.166 443.308C700.155 443.809 698.074 444.328 695.838 444.222C693.882 444.344 692.006 445.043 690.446 446.229C688.329 447.778 686.021 449.046 683.579 450.002C682.703 450.188 681.877 450.562 681.159 451.097C680.44 451.632 679.846 452.316 679.416 453.102C679.154 453.526 678.826 453.906 678.444 454.228L667.83 462.176C667.125 462.553 666.442 462.969 665.783 463.422C662.713 466.471 659.036 468.565 655.741 471.301C653.073 473.986 649.956 476.184 646.531 477.794C646.06 477.967 645.65 478.274 645.352 478.677C642.134 482.38 638.251 485.446 633.904 487.717C628.822 491.561 623.099 494.607 617.914 498.33C612.728 502.053 606.449 507.006 600.673 511.317C598.869 512.651 596.944 513.793 595.054 515.074C593.164 516.356 590.007 518.173 587.735 519.992C585.216 521.501 582.805 523.184 580.52 525.03C580.321 525.284 580.074 525.496 579.792 525.654C574.104 527.955 569.733 532.285 564.322 535.106C561.704 536.732 559.2 538.537 556.83 540.508C555.65 541.391 554.367 542.153 553.17 542.967C549.528 545.495 545.955 548.005 542.278 550.395C540.059 551.832 537.7 553.008 535.463 554.376C534.226 555.179 533.044 556.064 531.925 557.025C530.624 558.012 529.531 559.242 528.126 560.108L513.142 569.439C512.472 569.914 511.84 570.441 511.251 571.015C508.256 574.074 504.532 576.319 500.43 577.542C498.093 578.346 495.899 579.514 493.927 581.003C491.142 583.032 488.127 584.723 484.944 586.041C484.944 586.041 484.528 586.144 484.458 586.162C482.948 588.969 479.585 589.365 477.694 591.53C475.309 594.017 472.553 596.12 469.525 597.764C466.72 599.771 463.65 601.379 460.403 602.541C459.916 602.51 459.431 602.631 459.016 602.886C455.211 605.71 451.126 608.135 446.824 610.123C446.393 610.338 445.92 610.456 445.437 610.468C444.463 610.406 443.487 610.545 442.568 610.875C441.65 611.205 440.809 611.72 440.097 612.388C439.091 613.67 437.114 614.015 435.709 615.175C433.659 616.566 431.502 617.793 429.258 618.845C426.915 619.776 424.755 621.112 422.876 622.792C422.138 623.942 421.086 624.857 419.845 625.427C418.603 625.998 417.224 626.2 415.871 626.011C413.615 629.002 410.401 631.129 406.765 632.036C406.209 632.297 405.699 632.648 405.257 633.075C401.744 635.713 398.013 638.047 394.105 640.052C388.539 642.838 383.128 645.954 377.666 648.862C376.963 649.293 376.296 649.779 375.671 650.317C373.034 652.737 369.869 654.509 366.428 655.492C365.388 655.751 364.45 657.016 363.392 657.795C358.642 660.924 353.727 663.796 348.669 666.399C348.223 666.477 347.782 666.586 347.351 666.727C344.284 669.158 340.808 671.022 337.085 672.231C335.149 673.106 333.287 674.136 331.519 675.312C325.987 678.238 320.42 681.024 314.992 684.071C313.432 684.901 311.663 684.9 310.085 685.956C306.773 688.034 303.114 689.608 299.646 691.356C298.65 691.956 297.568 692.399 296.438 692.671C293.317 693.449 291.062 695.631 288.08 696.669C287.222 696.986 286.493 697.577 286.007 698.351C285.52 699.125 285.303 700.038 285.39 700.948C285.752 702.404 287.017 703.636 289.374 703.933C290.367 704.041 291.372 703.965 292.338 703.71C294.558 703.157 296.777 702.604 299.273 701.982C301.77 701.36 304.649 699.611 307.406 698.556C308.338 698.287 309.325 698.27 310.266 698.506C311.56 698.895 312.818 699.395 314.026 700C313.645 700.537 313.453 701.247 313.002 701.507C310.553 703.442 307.783 704.93 304.817 705.904C303.741 706.286 302.702 706.767 301.713 707.34C298.02 709.07 294.361 710.94 290.546 712.479C288.768 713.11 286.933 713.567 285.067 713.844C283.504 713.137 282.188 711.977 281.291 710.513C279.381 708.07 277.634 705.504 276.062 702.83C275.855 702.487 275.581 702.189 275.257 701.954C274.932 701.718 274.564 701.55 274.174 701.459C271.777 700.766 269.21 700.961 266.945 702.008C265.055 702.995 263.13 703.843 261.136 704.708C259.898 705.179 258.547 705.274 257.255 704.98C255.963 704.686 254.787 704.016 253.874 703.055C249.734 699.447 249.214 699.429 244.549 702.285C243.465 702.994 242.293 703.558 241.064 703.964C238.498 704.648 236.089 705.823 233.971 707.425C230.172 710.191 226.034 712.46 221.659 714.176C219.287 715.323 217.008 716.655 214.843 718.158C213.031 719.122 210.951 719.464 208.924 719.131C206.898 718.797 205.038 717.806 203.63 716.311C203.259 715.767 202.984 715.163 202.816 714.525C202.592 713.624 202.35 712.653 202.108 711.682C201.365 708.7 199.32 707.589 196.476 708.887C192.506 710.686 188.121 709.938 184.271 711.928C183.537 712.16 182.744 712.114 182.042 711.801C181.339 711.487 180.776 710.927 180.459 710.226C180.088 709.589 179.53 709.081 178.86 708.773C178.19 708.465 177.441 708.373 176.716 708.507L175.435 706.027C175.436 705.683 175.501 705.343 175.627 705.022C176.911 703.376 178.351 701.765 179.531 699.998C179.943 699.205 180.202 698.34 180.295 697.451C178.042 696.981 176.134 698.488 174.073 697.307L174.611 695.332C169.897 695.033 169.897 695.033 166.775 697.284L167.777 701.306C165.817 702.605 164.153 703.314 162.265 701.649C162.265 701.649 161.329 701.44 160.878 701.405C160.577 700.825 160.135 700.329 159.594 699.962C159.052 699.595 158.428 699.37 157.777 699.305C157.103 699.75 156.375 700.105 155.609 700.361C154.35 700.438 153.12 700.773 151.996 701.344C150.871 701.916 149.876 702.712 149.072 703.684C148.405 704.088 147.631 704.281 146.852 704.237C144.98 704.703 143.108 705.17 141.235 705.637C139.363 706.103 139.327 706.848 139.742 708.513C141.316 708.54 142.889 708.419 144.44 708.153C148.071 707.185 151.633 705.978 155.103 704.538C157.184 704.02 159.68 703.398 160.93 701.318L161.621 704.092C161.154 704.94 160.52 705.685 159.757 706.28C158.993 706.875 158.117 707.309 157.181 707.556C154.823 708.143 152.5 709.164 150.367 709.769C149.589 709.905 148.853 710.217 148.216 710.683C147.578 711.148 147.056 711.754 146.69 712.453C147.244 712.904 147.92 713.841 148.336 713.737C150.069 713.305 151.906 713.879 153.537 712.441C155.524 711.322 157.776 710.761 160.056 710.817C160.056 710.817 160.576 711.129 161.095 711.442C161.615 711.754 160.366 712.949 159.725 713.33C156.311 715.473 152.584 717.073 148.679 718.071C146.737 718.555 144.639 719.593 142.543 718.274C143.462 717.235 143.238 715.449 144.972 715.017C144.972 715.017 145.25 714.064 145.094 713.735C144.995 713.517 144.851 713.323 144.672 713.165C144.493 713.007 144.283 712.888 144.055 712.815C142.671 712.559 141.242 712.686 139.925 713.183C138.608 713.68 137.452 714.528 136.582 715.635C135.686 716.745 134.546 717.633 133.252 718.232C130.527 719.659 128.161 721.684 126.331 724.155C125.675 725.281 124.678 726.169 123.484 726.692C122.29 727.214 120.961 727.344 119.689 727.062L117.823 719.572C124.257 715.833 123.148 715.815 122.475 711.047C123.152 710.511 122.996 710.181 122.199 709.938C122.189 709.455 122.071 708.981 121.853 708.551C121.715 707.996 121.161 707.25 120.71 707.215C120.26 707.18 119.601 707.492 118.976 707.647C118.352 707.803 118.63 707.734 118.63 707.734C118.28 711.356 115.246 712.48 112.714 713.553C107.848 715.41 103.173 717.734 98.7547 720.493C96.9277 721.495 95.0193 722.34 93.0498 723.02C93.6373 725.377 95.2679 723.94 96.2901 724.496C97.7357 725.982 98.5482 727.971 98.5566 730.044L94.1145 735.865L90.3546 733.782C89.6611 733.955 88.6032 734.734 88.4119 735.444C87.4553 739.587 83.8491 740.485 80.8836 742.182C77.7463 742.006 75.3872 744.067 72.5266 744.706L71.2782 745.017C69.944 744.392 69.3033 743.594 69.703 742.242L71.2845 737.06C71.795 736.535 72.442 736.163 73.1527 735.986C73.8634 735.809 74.6096 735.834 75.3068 736.058C76.457 736.211 77.6221 735.92 78.5663 735.246C78.6527 735.593 78.8082 736.217 79.242 735.593L78.4448 735.35C78.9312 734.05 79.4348 732.82 79.8518 731.538C79.9746 730.945 80.0217 730.339 79.9919 729.735L87.2207 729.186L89.2683 726.466L89.7554 724.282C89.1512 724.509 88.5229 724.666 87.8829 724.749C86.9337 724.517 85.9328 724.627 85.057 725.061C84.1813 725.495 83.4871 726.224 83.0968 727.12C83.0968 727.12 81.7791 727.448 80.8776 727.673L79.957 730.186C79.1284 729.65 78.2306 729.229 77.2885 728.935C75.7181 728.658 74.1012 728.831 72.6252 729.434C70.4369 730.415 68.1761 731.224 65.863 731.856C64.7292 732.071 63.6789 732.601 62.8322 733.385C61.9855 734.169 61.3766 735.176 61.0753 736.29C60.7087 739.548 58.0384 740.656 56.3553 742.769L53.0113 740.877C52.9302 740.261 52.7794 739.656 52.562 739.074C52.4529 738.898 52.3083 738.746 52.1377 738.628C51.967 738.511 51.7738 738.43 51.5703 738.391C51.3668 738.351 51.1573 738.355 50.9551 738.4C50.753 738.446 50.5624 738.533 50.3956 738.656C49.6327 738.846 49.2332 739.903 48.4877 740.163C47.7421 740.422 48.2609 741.913 47.7054 742.936C45.6715 743.643 43.6948 744.505 41.7924 745.514C39.9195 746.57 38.012 747.487 36.1739 748.387C35.5941 748.776 34.9429 749.047 34.2579 749.184C33.5728 749.32 32.8675 749.32 32.1827 749.182C31.4978 749.045 30.8471 748.773 30.2678 748.383C29.6886 747.992 29.1924 747.491 28.808 746.908C28.1386 746.173 27.2914 745.623 26.3478 745.311C24.4826 744.66 22.5628 744.177 20.6114 743.868C18.0637 743.398 15.4984 743.153 13.0025 742.891C12.3516 742.907 11.7123 743.066 11.13 743.358L10.7326 741.763L10.1777 741.901L10.5752 743.496C9.46558 743.772 8.21733 744.083 6.9877 742.696C5.74852 741.857 4.3944 741.202 2.96762 740.751C2.60474 739.295 2.95292 737.44 1.04683 736.589C-0.859261 735.738 0.545711 734.578 0.234684 733.33C2.14611 732.105 3.58402 730.266 4.31226 728.115C5.03466 726.66 5.9322 725.299 6.98492 724.061C7.83532 722.745 9.63844 722.295 10.1426 720.476C10.6279 719.23 11.2448 718.039 11.9828 716.924C16.3003 715.332 17.114 716.529 22.3644 718.977L24.6711 717.298C25.4678 716.768 26.4234 716.529 27.3758 716.624C30.2978 716.672 33.2203 716.559 36.1297 716.284L36.4581 717.602L35.7646 717.774L36.3194 717.636C37.192 717.437 37.995 717.007 38.6449 716.392C39.2948 715.776 39.7677 714.998 40.0143 714.137C40.775 712.335 42.0177 710.776 43.606 709.633C46.1385 707.829 49.2608 707.051 52.3441 707.456C54.0998 707.442 55.8448 707.181 57.5277 706.68C61.9661 705.574 66.0413 703.307 70.6698 702.964C71.0859 702.86 71.5714 702.739 71.9875 702.635C72.4036 702.532 73.0635 701.041 74.2249 700.973C75.3863 700.905 77.3457 700.195 78.9921 700.595C79.6894 700.82 80.4354 700.845 81.1461 700.668C81.8568 700.491 82.5039 700.118 83.0144 699.593C83.8821 698.346 85.1474 698.399 86.5513 698.712C87.6106 698.775 88.6707 698.601 89.6545 698.203C90.6382 697.805 91.521 697.193 92.2387 696.411C94.4396 695.457 96.7827 694.873 99.1737 694.683C99.9366 694.493 100.769 694.286 101.532 694.096C107.08 692.713 112.836 691.279 114.298 683.549L113.051 681.797C112.719 681.84 112.393 681.921 112.08 682.039C109.722 682.627 107.52 683.838 105.335 684.53C105.043 684.56 104.747 684.516 104.475 684.404C104.203 684.292 103.963 684.115 103.776 683.887C103.657 683.591 103.614 683.269 103.651 682.951C103.687 682.633 103.802 682.33 103.985 682.068C105.065 681.08 106.219 680.177 107.437 679.366C108.461 678.515 109.109 677.295 109.242 675.97C109.391 675.422 109.364 674.841 109.165 674.31C108.967 673.778 108.606 673.322 108.135 673.005C107.998 672.831 107.9 672.629 107.846 672.414C107.792 672.199 107.785 671.975 107.824 671.757C107.599 670.855 108.207 669.746 108.503 668.273C109.455 669.055 110.336 669.92 111.136 670.858C112.016 672.256 113.354 673.305 114.921 673.828C116.488 674.35 118.188 674.314 119.731 673.725C122.05 673.151 124.4 672.713 126.77 672.413L129.147 669.243C129.582 667.146 128.128 665.151 130.244 663.298C133.465 664.698 136.433 666.622 139.028 668.99C140.653 669.323 142.338 669.203 143.9 668.645C145.462 668.087 146.841 667.112 147.888 665.825C147.673 665.143 147.499 664.448 147.37 663.745C146.912 662.1 146.94 660.359 147.448 658.729C147.957 657.1 148.925 655.652 150.237 654.56C151.452 653.74 152.466 652.657 153.204 651.39C153.204 651.39 153.1 650.974 153.065 650.835L150.589 647.696C144.246 649.23 138.118 651.549 132.348 654.598C132.815 656.47 133.803 656.298 134.808 655.9C135.023 655.84 135.25 655.834 135.467 655.883C135.685 655.931 135.887 656.033 136.056 656.178C136.202 656.347 136.306 656.549 136.36 656.765C136.414 656.982 136.417 657.209 136.367 657.426C136.073 658.029 135.66 658.564 135.152 659.001C134.644 659.438 134.052 659.767 133.413 659.968C132.774 660.168 132.1 660.237 131.434 660.168C130.767 660.1 130.121 659.897 129.536 659.571C128.791 659.249 128.078 658.86 127.405 658.407C126.885 657.883 126.209 657.54 125.478 657.43C124.747 657.32 124.001 657.449 123.349 657.798C122.301 658.262 121.124 658.347 120.021 658.038C119.543 657.881 119.033 657.846 118.539 657.938C118.044 658.029 117.581 658.243 117.19 658.56C116.8 658.877 116.496 659.287 116.305 659.753C116.115 660.218 116.045 660.724 116.101 661.224C116.099 663.581 115.093 664.274 113.151 665.053C110.02 666.074 106.669 666.222 103.461 665.478C100.906 664.904 98.2363 665.132 95.8159 666.131L98.1753 663.775C98.0459 662.273 97.7977 660.783 97.4333 659.32C96.72 657.322 96.4901 655.183 96.7623 653.079C97.0408 651.537 95.9328 649.75 95.4836 647.947C91.3213 647.695 87.182 648.726 83.6246 650.902C83.0779 651.22 82.6558 651.715 82.4276 652.305C81.7867 653.735 80.844 655.009 79.6643 656.041C78.4846 657.072 77.0959 657.836 75.5932 658.28C72.9747 659.595 69.9758 659.68 67.4782 661.481C66.3192 662.037 65.0457 662.314 63.7602 662.289C62.4748 662.264 61.2131 661.937 60.0767 661.336L53.2604 666.496C52.2891 667.368 51.5749 668.488 51.1951 669.736C50.9757 670.545 50.4736 671.248 49.7798 671.719C49.0861 672.189 48.2467 672.395 47.4141 672.299C46.9298 672.23 46.4361 672.301 45.9908 672.504C45.5455 672.706 45.167 673.031 44.8998 673.441C44.4452 674.021 43.8368 674.461 43.1439 674.712C42.4511 674.963 41.7017 675.014 40.9812 674.859L37.5321 674.319C36.3015 674.11 35.0194 673.398 33.736 674.16C32.9034 674.473 32.1466 674.959 31.5156 675.586C30.8847 676.213 30.3939 676.967 30.0757 677.797C30.008 678.012 29.8744 678.2 29.6939 678.334C27.8908 678.784 26.4688 679.58 25.0295 680.307C23.5902 681.034 22.3933 682.142 20.9712 682.938C20.396 683.326 19.7493 683.595 19.0689 683.729C18.3886 683.864 17.6883 683.861 17.0089 683.722C16.3295 683.582 15.6847 683.309 15.1122 682.918C14.5397 682.526 14.0511 682.024 13.6747 681.442C12.9128 680.453 11.4399 679.863 11.7532 678.164C11.7532 678.164 10.7482 677.678 10.2457 677.435C11.9811 675.777 14.0504 674.508 16.3155 673.713C18.5918 672.759 20.765 671.576 22.8013 670.182C23.021 670.064 23.2123 669.899 23.3618 669.699C23.5112 669.499 23.6153 669.269 23.6666 669.025C23.718 668.78 23.7155 668.528 23.6592 668.285C23.6029 668.042 23.4942 667.814 23.3407 667.617C22.905 667.166 22.5958 666.608 22.4441 665.999C22.2925 665.39 22.3037 664.752 22.4767 664.149C23.5462 663.622 24.5777 663.02 25.5636 662.349C26.7752 661.336 28.2393 660.67 29.7996 660.424C31.3599 660.178 32.9577 660.361 34.4224 660.952C35.593 661.422 36.8673 661.574 38.1157 661.392C39.3641 661.211 40.5422 660.702 41.5302 659.917C43.7317 658.494 46.1866 657.507 48.7608 657.011C50.4881 656.518 52.1845 655.924 53.8412 655.23L57.0664 653.984C61.3661 652.913 65.6658 651.841 69.7581 649.938C73.0035 648.782 75.9612 646.94 78.4294 644.536C78.7963 644.109 79.2871 643.806 79.8338 643.67C80.3806 643.533 80.9561 643.571 81.4808 643.776C82.0817 643.968 82.7245 643.986 83.3355 643.83C87.0498 642.943 90.4286 641.001 93.0644 638.238C92.8634 637.136 92.5922 636.047 92.2523 634.979C91.7339 632.898 90.3821 632.499 87.9726 632.583L87.5565 632.687C82.0267 632.96 80.624 631.173 81.7726 625.437C82.8822 625.16 83.0896 625.992 83.4183 626.721C83.7471 627.449 83.6084 627.484 83.643 627.622C84.3469 627.928 85.1124 628.065 85.8787 628.023C86.2255 627.936 86.7116 626.931 86.5906 626.446C86.0131 623.622 86.5164 620.684 88.0012 618.213L94.7969 617.404C95.8035 615.827 96.1338 614.493 98.1277 613.922C102.081 612.937 102.219 612.903 101.679 616.647C101.469 618.761 102.474 619.837 104.641 619.076C106.174 618.458 107.834 618.222 109.478 618.386C110.438 618.332 111.379 618.098 112.252 617.695C115.518 616.59 119.044 616.508 122.358 617.46C123.53 617.686 124.718 617.808 125.911 617.827L129.254 621.487C135.801 620.909 142.169 619.047 147.996 616.007C149.447 615.259 150.598 614.036 151.258 612.543C152.232 608.765 155.509 606.843 157.609 604.037C158.338 603.118 159.257 602.374 159.899 601.404C159.956 601.137 159.952 600.861 159.886 600.597C159.82 600.332 159.694 600.086 159.519 599.878C159.216 599.83 158.906 599.843 158.608 599.918C158.31 599.992 158.03 600.125 157.785 600.31C157.23 600.448 157.091 601.367 156.709 601.904C156.225 602.415 155.703 602.89 155.148 603.324C152.831 601.778 150.236 600.699 147.506 600.146C145.808 599.832 144.943 597.838 144.112 596.278C142.467 593.806 141.729 590.841 142.021 587.886C141.917 587.47 141.779 586.915 141.675 586.499C142.301 583.692 139.772 582.702 138.594 580.933C138.49 580.516 137.312 580.516 136.74 580.584C136.168 580.653 135.145 580.982 134.382 581.172C133.605 581.299 132.808 581.189 132.094 580.858C131.213 580.123 130.176 579.6 129.061 579.329C127.946 579.057 126.784 579.045 125.664 579.293C124.441 579.469 123.195 579.385 122.006 579.046C120.818 578.708 119.714 578.123 118.767 577.329C117.942 576.001 117.532 574.457 117.588 572.895C117.645 571.332 118.166 569.823 119.086 568.558C120.234 566.225 121.738 564.086 123.545 562.217C125.01 560.881 126.237 559.305 127.172 557.557C127.83 556.702 128.18 555.649 128.166 554.57C128.151 553.491 127.772 552.448 127.09 551.612C126.508 550.736 126.048 549.785 125.723 548.785C124.592 548.828 123.482 549.105 122.463 549.597C121.145 550.809 118.649 550.548 118.179 552.801C117.832 552.887 117.105 552.626 116.949 552.297C115.727 550.213 114.95 547.899 114.666 545.5C114.676 543.945 114.115 542.441 113.091 541.271C112.067 540.101 110.649 539.347 109.107 539.151C106.594 538.525 103.89 538.315 102.141 536.026C102.27 533.931 102.538 531.846 102.943 529.786C103.5 527.585 106.308 527.917 107.626 526.41C108.267 525.66 108.95 524.949 109.673 524.279C108.052 523.656 106.275 523.557 104.595 523.998C102.514 524.516 100.226 525.087 98.0077 523.871C97.2107 523.333 95.789 523.835 94.6276 523.903L93.8154 520.644L89.9156 520.069C89.6737 519.098 89.4491 518.196 89.2071 517.225C88.9652 516.255 88.6369 514.937 86.834 515.092C86.1715 515.184 85.5205 515.346 84.8922 515.575L83.1585 516.007C83.6792 515.141 83.8184 514.517 84.252 514.188C85.8257 512.485 87.005 510.456 87.7062 508.245C88.0093 507.677 88.1308 507.03 88.0543 506.391C87.6897 504.617 87.8169 502.776 88.4225 501.069C88.7246 500.472 88.8018 499.786 88.64 499.137C88.4782 498.488 88.0882 497.918 87.5412 497.533C86.3286 496.69 85.447 495.451 85.0478 494.029C83.923 491.584 82.5367 491.046 79.78 491.806C77.0233 492.567 75.8093 493.311 73.7806 494.038C73.1888 494.222 72.5868 494.372 71.9776 494.487C71.1428 493.759 70.6108 492.745 70.4866 491.644C70.3623 490.544 70.6547 489.436 71.3062 488.541C73.1233 485.232 73.8767 481.444 73.4641 477.691C73.4976 475.811 73.6963 473.938 74.0579 472.093C75.7227 471.089 77.509 469.981 79.2608 468.734C80.0439 468.191 80.7498 467.544 81.3596 466.812C82.9164 464.454 85.3301 462.796 88.089 462.189C90.2146 461.846 92.1904 460.879 93.7655 459.411C95.3407 457.944 96.4442 456.041 96.9358 453.945C103.488 452.926 109.375 449.368 113.324 444.042C114.398 442.798 115.373 441.471 116.24 440.075C116.315 439.488 116.167 438.894 115.825 438.411C115.661 438.251 115.458 438.135 115.237 438.074C115.016 438.013 114.783 438.009 114.56 438.063C112.034 438.816 109.551 439.705 107.121 440.727C105.714 441.464 104.168 441.899 102.582 442.002C100.997 442.106 99.4074 441.875 97.9165 441.326C97.765 439.783 97.9964 438.226 98.5901 436.793C99.1839 435.36 100.122 434.096 101.32 433.112C101.768 432.765 102.282 432.516 102.832 432.379C103.381 432.242 103.953 432.221 104.51 432.317C106.3 432.53 108.114 432.305 109.798 431.663C114.167 430.268 118.457 428.634 122.646 426.767C126.548 424.985 130.519 423.48 134.576 422.027C135.771 421.58 137.064 421.462 138.32 421.683C139.326 421.875 140.157 422.846 141.127 423.488C143.208 422.97 145.271 421.793 147.3 420.772C151.167 418.851 151.654 417.551 150.947 412.94C150.874 412.313 150.916 411.679 151.069 411.068L151.975 405.539C150.918 404.845 149.74 404.254 148.735 403.473C147.717 402.574 146.396 402.094 145.038 402.132C143.68 402.17 142.387 402.721 141.42 403.676C138.634 405.712 135.559 407.322 132.299 408.453C131.052 409.019 129.668 409.214 128.313 409.017C126.958 408.819 125.688 408.236 124.655 407.337C126.582 403.85 129.334 400.888 132.67 398.711C133.468 398.071 134.404 397.69 135.22 397.119C135.793 396.796 136.286 396.348 136.662 395.808C137.037 395.268 137.286 394.65 137.389 394L138.869 385.75C138.76 383.347 138.172 380.989 137.141 378.815C136.935 378.27 136.56 377.805 136.07 377.489C135.58 377.174 135.002 377.024 134.421 377.062C131.45 376.867 128.492 377.604 125.96 379.17C121.158 382.299 116.085 384.993 110.804 387.219C109.009 388.362 106.891 388.89 104.77 388.722C104.112 387.855 104.91 387.214 105.344 386.591C106.75 384.252 108.294 381.878 109.683 379.47C110.03 378.794 110.447 377.806 110.153 377.217C109.218 374.945 110.277 373.577 111.648 371.983C112.671 370.723 113.594 369.385 114.407 367.981C113.958 366.178 113.577 364.652 112.677 362.814C113.564 361.981 114.502 361.206 115.487 360.493C117.186 359.213 118.958 358.034 120.794 356.961C123.517 355.473 126.482 354.366 129.101 352.756C133.384 350.142 138.083 348.308 141.969 345.277C144.839 343.916 147.793 342.737 150.812 341.748C155.772 338.892 160.697 335.897 165.674 333.11C170.651 330.323 174.241 327.587 178.473 325.354C184.993 321.962 190.872 318.067 197.254 314.709C202.318 311.974 207.035 308.736 211.995 305.88C219.313 301.552 226.753 297.415 234.123 293.001L237.332 290.802C240.077 288.714 242.989 286.855 246.038 285.244C250.286 283.375 253.704 280.241 257.831 278.181C261.958 276.122 264.144 273.957 268.01 272.33C270.883 270.854 273.637 269.158 276.248 267.258L284.954 261.7L310.465 245.842C313.448 243.921 316.154 241.479 319.241 239.678C324.687 236.406 329.786 232.631 335.387 229.689C339.428 227.577 342.793 224.529 346.66 222.314C349.157 220.226 351.973 218.554 355.002 217.363L354.655 217.449C354.743 215.733 356.943 216.879 357.499 215.267C358.055 213.655 359.425 213.83 360.725 213.432C361.744 212.961 362.654 212.283 363.396 211.441C366.485 208.659 369.939 206.311 373.663 204.463C375.588 203.266 377.39 201.879 379.04 200.325C379.47 199.855 379.996 199.484 380.583 199.236C381.169 198.988 381.802 198.87 382.439 198.889C383.34 198.664 382.596 196.861 384.052 197.087C385.816 194.936 388.223 193.407 390.92 192.724C391.304 192.612 391.652 192.401 391.929 192.112C392.206 191.824 392.403 191.467 392.499 191.079C393.124 190.039 395.462 191.74 395.239 189.365C396.355 188.706 397.396 187.928 398.344 187.044C401.142 184.298 404.204 181.833 407.484 179.685L409.323 178.195L408.976 178.282C410.042 177.312 411.172 176.415 412.359 175.598C414.612 174.37 416.713 172.882 418.62 171.165C419.998 169.774 421.773 168.843 423.701 168.499L425.903 166.698C427.621 165.313 430.204 165.038 431.142 162.594C431.142 162.594 431.696 162.456 431.974 162.387C436.274 160.726 439.103 156.707 443.489 155.098C444.46 154.856 445.103 153.592 445.935 152.795C448.138 150.633 450.536 148.679 453.099 146.959C458.062 144.11 462.672 140.686 466.836 136.76C468.661 134.875 470.732 133.244 472.993 131.911C475.652 130.268 478.079 128.276 480.209 125.988C483.532 122.884 487.164 120.128 491.049 117.763C494.714 115.561 498.029 112.824 500.884 109.641C501.56 108.919 502.359 108.321 503.243 107.875C507.519 105.42 511.421 102.364 514.829 98.801C515.308 98.5765 515.826 98.4473 516.355 98.4209C517.481 98.8031 517.238 99.6003 517.445 100.138C518.328 101.907 519.281 102.479 520.911 102.221C522.54 101.962 525.435 101.461 527.949 100.909C528.432 100.902 528.907 100.783 529.336 100.563C530.862 99.5937 532.302 98.5721 533.845 97.6719C535.389 96.7717 536.845 96.4089 538.163 95.4912C542.004 92.642 546.202 90.3084 550.649 88.55C552.831 87.768 554.861 86.6143 556.65 85.1399C561.423 81.9535 565.613 77.9696 569.035 73.3624C570.029 72.0739 571.101 70.8475 572.245 69.69C576.925 70.7338 576.925 70.7337 579.978 67.3213L584.346 67.7061C586.539 64.2499 589.029 60.9922 591.79 57.9702C593.169 56.2594 594.361 54.4067 595.348 52.4434C598.364 52.7231 601.57 53.7656 604.155 50.2488L606.753 52.695L609.355 51.605C610.39 51.1474 611.519 50.9422 612.649 51.0064C613.779 51.0706 614.878 51.4022 615.854 51.9741C617.916 53.1544 620.169 54.5083 622.579 53.2448C622.873 54.4237 623.028 55.0479 623.218 55.8107L628.817 56.4045C630.996 55.4559 632.835 53.8674 634.09 51.8497C636.24 49.1549 638.589 46.6246 641.116 44.2802C644.022 41.7861 645.932 38.3295 646.498 34.5427L645.164 32.7388C647.637 29.5081 650.81 26.8793 654.444 25.0498C655.346 24.8252 655.797 23.6814 656.508 22.9886L661.088 18.6067C662.892 16.9787 665.302 16.0099 665.599 13.0633C665.444 12.4392 666.987 11.8337 667.716 11.2102C668.444 10.5868 668.184 10.1359 667.527 8.67928C668.305 8.39635 669.157 8.39239 669.938 8.66805C670.719 8.94373 671.379 9.48194 671.807 10.1907C672.692 11.3653 673.513 12.5869 674.266 13.8501C674.577 14.2486 674.803 14.7075 674.927 15.1977C675.052 15.6879 675.073 16.1986 674.989 16.6975C674.906 17.1963 674.719 17.6723 674.442 18.0952C674.164 18.518 673.802 18.8785 673.378 19.1537L668.972 23.0504C668.534 23.3018 668.164 23.6573 667.897 24.0854C667.629 24.5134 667.47 25.0009 667.436 25.5048C667.401 26.0086 667.491 26.5132 667.698 26.9739C667.904 27.4347 668.222 27.8373 668.621 28.1464L669.244 28.8749C669.244 28.8749 669.244 28.8749 669.678 29.1353C670.75 29.2064 671.824 29.0349 672.821 28.6336C673.817 28.2322 674.711 27.6113 675.434 26.817C676.265 25.8036 677.414 25.1017 678.695 24.8261C680.965 24.4204 683.057 23.3339 684.695 21.7107C687.421 19.5162 690.621 17.9874 694.041 17.2458L698.893 19.5724C699.06 20.828 699.367 22.0609 699.809 23.248C700.39 24.2535 701.161 25.137 702.078 25.8499C702.926 26.5959 704.035 27.2035 703.861 28.5727C703.857 29.3099 703.689 30.037 703.371 30.702C703.053 31.367 702.592 31.9535 702.02 32.4195C702.02 32.4195 701.569 32.9738 701.292 33.0429C700.27 33.6088 699.392 34.4012 698.724 35.3591C698.057 36.3171 697.617 37.4153 697.439 38.5695C698.046 39.4643 698.977 40.087 700.036 40.3048C701.095 40.5226 702.197 40.3182 703.107 39.7353C704.102 39.1916 705.162 38.7788 706.263 38.507C707.056 38.2528 707.914 38.2898 708.683 38.6113C709.451 38.9328 710.08 39.5177 710.456 40.2611C710.98 41.1001 711.324 42.0386 711.467 43.0174C711.609 43.9962 711.547 44.9939 711.284 45.9473C710.356 49.7711 708.95 53.4625 707.098 56.9339C704.459 61.4214 702.081 66.3598 699.72 70.7781C697.84 73.6613 695.771 76.4161 693.525 79.0243C691.287 81.8654 688.858 84.5329 686.793 87.4781C684.374 90.7192 681.779 93.8246 679.02 96.7805C678.144 97.9594 677.372 99.2114 676.711 100.523C676.206 101.479 675.924 102.538 675.887 103.618C675.85 104.699 676.059 105.774 676.498 106.763C676.6 106.991 676.752 107.193 676.944 107.353C677.135 107.513 677.36 107.628 677.602 107.688C677.844 107.749 678.097 107.753 678.341 107.701C678.585 107.649 678.815 107.543 679.011 107.389C679.836 106.621 680.533 105.726 681.076 104.738C681.507 103.841 682.133 103.051 682.906 102.425C683.68 101.799 684.584 101.353 685.551 101.119C686.228 101.675 686.707 102.433 686.919 103.283C687.131 104.132 687.063 105.027 686.726 105.835C685.637 108.219 685.273 110.872 685.68 113.461C686.771 115.473 688.956 114.192 690.827 114.904C690.602 115.476 690.618 116.134 690.289 116.585L687.27 119.841C685.296 122.441 684.151 125.575 683.987 128.835C683.778 129.771 684.505 130.916 684.816 132.164L690.071 128.719L693.362 131.876C698.261 128.918 702.954 125.632 707.41 122.041C707.652 123.012 707.34 123.827 707.252 124.659L710.165 123.933C710.177 124.267 710.136 124.6 710.043 124.921C709.589 125.591 709.046 126.197 708.429 126.722C705.327 128.838 702.966 131.873 701.68 135.401C702.907 135.629 704.171 135.552 705.362 135.178C706.553 134.805 707.634 134.145 708.511 133.257C712.068 129.499 716.005 126.087 719.544 122.259C720.259 121.573 720.805 120.731 721.141 119.799C721.78 116.905 723.532 114.379 726.017 112.765C729.995 109.353 733.728 105.667 737.189 101.732C739.356 99.7759 741.423 97.7122 743.382 95.5482C745.071 93.3121 746.574 90.9423 747.877 88.4621C748.341 87.4219 748.713 86.3434 748.989 85.2388C749.406 84.2511 750.637 83.5761 750.396 82.3105C750.154 81.0449 749.737 81.7379 749.599 81.7725C748.52 82.1826 747.522 82.7804 746.651 83.5382C741.966 88.9775 736.173 93.5145 731.454 98.8151C726.735 104.116 722.329 107.718 718.148 112.516C716.45 114.737 714.105 116.376 711.436 117.208L711.384 117.589ZM129.876 711.781C129.322 711.919 128.472 711.763 128.246 713.219L129.773 711.66C129.773 711.66 130.431 711.938 130.639 711.886C131.016 711.825 131.387 711.733 131.749 711.609C131.662 711.263 131.125 710.881 130.831 710.881C130.536 710.88 129.704 711.088 129.894 711.851L129.876 711.781ZM727.011 127.985C726.696 130.862 724.425 132.386 722.776 134.343L721.787 135.4L723.553 138.937C725.649 139.667 726.984 139.408 728.06 137.814C728.992 136.131 730.041 134.515 731.202 132.98C730.631 130.692 730.199 128.958 729.819 127.432C730.983 125.599 732.685 124.171 734.693 123.345C735.793 122.986 736.83 122.455 737.763 121.77C742.4 119.674 746.669 116.845 750.406 113.391C753.607 110.322 755.972 106.487 757.279 102.25C757.853 99.5291 756.693 97.5347 753.989 97.914C752.682 97.906 751.394 98.2269 750.244 98.8471C746.723 101.08 743.414 103.63 740.358 106.466C737.343 109.684 734.065 112.645 730.557 115.316C725.78 119.494 721.229 123.923 716.922 128.584C716.442 129.077 716.094 129.683 715.911 130.347C715.729 131.011 715.718 131.71 715.879 132.379C717.404 132.605 718.962 132.473 720.427 131.992C721.893 131.512 723.227 130.697 724.323 129.612C725.161 128.979 726.061 128.434 727.011 127.985ZM149.703 627.882C149.605 627.221 149.443 626.571 149.219 625.94C148.736 623.999 148.25 623.825 146.447 623.979C144.645 624.134 144.436 624.481 143.968 625.26C143.659 625.845 143.231 626.359 142.711 626.767C142.191 627.176 141.591 627.471 140.95 627.633L133.892 630.938C132.72 631.536 131.371 631.689 130.096 631.368C126.694 630.923 123.25 631.781 120.456 633.77C121.236 634.359 121.929 635.054 122.517 635.835C122.734 636.615 122.709 637.443 122.446 638.209C122.14 639.017 121.738 639.785 121.248 640.496C123.526 640.975 125.9 640.568 127.888 639.358C128.384 639.1 128.933 638.96 129.492 638.948C130.051 638.937 130.605 639.054 131.112 639.291C132.845 640.332 134.665 639.658 136.416 639.884C137.317 639.885 138.209 639.694 139.031 639.324C139.853 638.954 140.587 638.414 141.184 637.739C142.277 636.803 143.56 636.042 143.458 634.152C143.355 632.263 144.136 632.142 145.28 631.415C146.832 630.338 148.309 629.157 149.703 627.882ZM813.228 308.761C812.148 308.957 811.083 309.223 810.037 309.556C808.974 310.233 807.874 310.851 806.742 311.408C804.968 311.868 803.41 312.934 802.337 314.421C802.028 314.903 801.619 315.314 801.137 315.625C800.655 315.935 800.112 316.139 799.545 316.221C798.454 316.567 797.342 316.844 796.216 317.051C795.645 317.167 795.109 317.413 794.648 317.771C794.188 318.128 793.817 318.587 793.563 319.111C792.903 320.602 792.087 322.057 793.368 323.948C794.63 323.816 795.868 323.508 797.044 323.032C800.616 321.11 804.067 318.998 807.605 316.938C810.05 315.519 810.226 312.087 812.862 310.841C813.209 310.755 813.313 309.992 813.4 309.455C813.487 308.917 813.348 309.247 813.228 308.761ZM784.631 59.1963C782.899 58.1549 783.923 56.3529 783.161 55.0696C782.318 55.3672 781.496 55.7197 780.699 56.125C779.823 56.5865 778.998 57.1377 778.236 57.7698L769.806 65.3209C769.362 65.8112 768.978 66.352 768.661 66.9321C768.618 67.3473 768.722 67.7644 768.954 68.111C768.954 68.111 769.699 68.441 769.873 68.2504C771.081 67.4611 772.245 66.6056 773.359 65.6877C774.4 64.8392 775.25 63.8171 776.775 64.0263C776.914 64.5811 776.688 65.4476 777.19 65.6907C777.693 65.9338 778.646 65.9172 779.27 65.1723L784.631 59.1963ZM122.284 623.076L115.643 625.983C113.406 627.056 113.423 627.126 114.322 630.143C117.48 629.385 120.536 628.253 123.425 626.769L122.284 623.076ZM694.119 29.0851C693.234 30.5578 692.418 31.7186 691.706 33.0007C691.164 34.0044 690.71 35.0539 690.352 36.1371C690.296 36.3547 690.296 36.5826 690.35 36.8005C690.404 37.0183 690.512 37.2193 690.663 37.3854C690.868 37.4981 691.094 37.5658 691.327 37.5839C691.561 37.602 691.795 37.5702 692.015 37.4905C693.173 36.8709 694.275 36.1525 695.31 35.3436C696.021 34.6508 696.542 33.4898 695.624 32.7611C695.419 32.6468 695.24 32.4918 695.098 32.3055C694.955 32.1193 694.853 31.9059 694.796 31.6784C694.74 31.451 694.73 31.2143 694.768 30.9831C694.807 30.7518 694.892 30.5308 695.019 30.3339C695.019 30.3339 694.309 29.5533 693.841 29.1542L694.119 29.0851ZM109.87 648.635C109.216 647.805 108.504 647.023 107.74 646.293C107.74 646.293 107.185 646.431 106.908 646.5C106.63 646.569 104.982 648.232 105.345 649.983C105.708 651.734 106.591 652.619 107.683 652.568C108.099 652.477 108.49 652.298 108.832 652.044C109.173 651.79 109.457 651.466 109.664 651.094C109.871 650.722 109.996 650.311 110.032 649.887C110.067 649.463 110.012 649.036 109.87 648.635ZM35.7083 745.336L39.2968 744.957C39.9403 742.219 39.8709 742.236 38.4501 741.559C37.6288 741.182 36.7177 741.045 35.822 741.164C34.9262 741.283 34.0823 741.653 33.3879 742.231C34.3233 743.029 36.1433 743.239 35.7083 745.336ZM785.314 117.804C784.135 118.097 783.094 118.357 782.47 118.512C781.069 119.598 780.098 121.145 779.728 122.878C779.728 122.878 779.832 123.294 779.849 123.363C779.866 123.433 780.525 123.711 780.646 123.607C782.782 122.119 784.488 120.093 785.591 117.734L785.314 117.804ZM796.584 290.148C794.989 290.546 794.365 290.702 793.914 291.256C793.463 291.81 792.248 294.028 793.149 294.393C794.05 294.757 794.952 293.943 795.507 293.216C796.062 292.488 796.253 291.778 796.861 290.079L796.584 290.148ZM259.702 698.952C260.881 698.658 261.661 697.948 261.523 697.099C261.385 696.249 260.467 696.11 259.704 696.005L258.803 696.23C258.607 696.257 258.42 696.326 258.254 696.432C258.088 696.539 257.947 696.681 257.842 696.847C257.736 697.014 257.668 697.201 257.642 697.397C257.616 697.592 257.633 697.791 257.692 697.98C257.865 698.87 258.535 699.194 259.702 698.952ZM178.823 695.682C180.487 695.856 181.839 695.961 182.776 694.697C182.826 694.479 182.823 694.252 182.769 694.036C182.715 693.819 182.611 693.618 182.465 693.448C182.278 693.304 182.062 693.2 181.833 693.144C181.603 693.087 181.364 693.078 181.131 693.118C180.568 693.327 180.064 693.669 179.662 694.116C179.26 694.562 178.972 695.1 178.823 695.682ZM763.385 74.4336C760.889 73.877 760.889 73.877 760.541 76.0261L763.385 74.4336ZM799.762 305.266L799.068 305.439C799.068 305.439 799.172 305.855 799.068 305.439L799.831 305.249L799.762 305.266ZM763.388 70.6028C763.388 70.6028 763.388 70.6028 763.041 70.6892L763.388 70.6028Z" fill="#FBAF5B"/>
</svg>
